<svg width="54" height="54" viewBox="0 0 54 54" fill="none" xmlns="http://www.w3.org/2000/svg">
<path d="M29.6541 26.6853C28.7541 26.6853 27.9441 26.1903 27.5616 25.3803L24.2991 18.8778L23.3541 20.6328C22.8366 21.6003 21.8016 22.2078 20.6991 22.2078H19.0566C18.1341 22.2078 17.3691 21.4428 17.3691 20.5203C17.3691 19.5978 18.1341 18.8328 19.0566 18.8328H20.4966L22.2741 15.5478C22.7016 14.7828 23.5566 14.2653 24.3666 14.3103C25.2441 14.3103 26.0316 14.8278 26.4366 15.5928L29.6541 22.0278L30.4191 20.4753C30.9366 19.4403 31.9491 18.8103 33.1191 18.8103H34.9416C35.8641 18.8103 36.6291 19.5753 36.6291 20.4978C36.6291 21.4203 35.8641 22.1853 34.9416 22.1853H33.3441L31.7466 25.3578C31.3416 26.1903 30.5541 26.6853 29.6541 26.6853Z" fill="#0C62AF"/>
<path d="M6.18758 41.9623C5.26508 41.9623 4.50008 41.1973 4.50008 40.2748V27.4498C4.38758 21.3523 6.66008 15.5923 10.8901 11.2723C15.1201 6.97481 20.7901 4.6123 26.8876 4.6123C39.3526 4.6123 49.5001 14.7598 49.5001 27.2248V40.0498C49.5001 40.9723 48.7351 41.7373 47.8126 41.7373C46.8901 41.7373 46.1251 40.9723 46.1251 40.0498V27.2248C46.1251 16.6273 37.5076 7.9873 26.8876 7.9873C21.6901 7.9873 16.8751 9.98981 13.2976 13.6348C9.69758 17.3023 7.78508 22.1848 7.87508 27.4048V40.2523C7.87508 41.1973 7.13258 41.9623 6.18758 41.9623Z" fill="#0C62AF"/>
<path d="M13.365 28.0127H13.0725C8.3475 28.0127 4.5 31.8602 4.5 36.5852V40.8152C4.5 45.5402 8.3475 49.3877 13.0725 49.3877H13.365C18.09 49.3877 21.9375 45.5402 21.9375 40.8152V36.5852C21.9375 31.8602 18.09 28.0127 13.365 28.0127Z" fill="#0C62AF"/>
<path d="M40.9275 28.0127H40.635C35.91 28.0127 32.0625 31.8602 32.0625 36.5852V40.8152C32.0625 45.5402 35.91 49.3877 40.635 49.3877H40.9275C45.6525 49.3877 49.5 45.5402 49.5 40.8152V36.5852C49.5 31.8602 45.6525 28.0127 40.9275 28.0127Z" fill="#0C62AF"/>
</svg>
