<svg width="748" height="790" viewBox="0 0 748 790" fill="none" xmlns="http://www.w3.org/2000/svg">
<line x1="384.404" y1="3.38554e-08" x2="384.404" y2="85.9718" stroke="#0C62AF" stroke-opacity="0.22" stroke-width="1.54904"/>
<line x1="456.437" y1="3.38554e-08" x2="456.437" y2="49.5693" stroke="#0C62AF" stroke-opacity="0.22" stroke-width="1.54904"/>
<line x1="262.805" y1="3.38554e-08" x2="262.805" y2="49.5693" stroke="#0C62AF" stroke-opacity="0.22" stroke-width="1.54904"/>
<path d="M384.405 84.4219L410.564 118.114H358.245L384.405 84.4219Z" fill="#0C62AF"/>
<path d="M456.049 48.7949L471.141 68.5452H440.957L456.049 48.7949Z" fill="#0C62AF"/>
<path d="M262.418 48.7949L277.51 68.5452H247.326L262.418 48.7949Z" fill="#0C62AF"/>
<circle cx="383.631" cy="117.727" r="6.19616" fill="#0C62AF" fill-opacity="0.44"/>
<circle cx="455.66" cy="68.9325" r="6.19616" fill="#0C62AF" fill-opacity="0.44"/>
<circle cx="262.031" cy="68.9325" r="6.19616" fill="#0C62AF" fill-opacity="0.44"/>
<path d="M384.018 85.1963L491.674 224.61H276.361L384.018 85.1963Z" fill="url(#paint0_linear_1138_4103)" fill-opacity="0.93"/>
<path d="M456.048 49.5684L518.763 130.312H393.332L456.048 49.5684Z" fill="url(#paint1_linear_1138_4103)" fill-opacity="0.93"/>
<path d="M262.418 49.5684L325.133 130.312H199.702L262.418 49.5684Z" fill="url(#paint2_linear_1138_4103)" fill-opacity="0.93"/>
<path d="M0 11C0 4.92488 4.92487 0 11 0H737C743.075 0 748 4.92487 748 11V779C748 785.075 743.075 790 737 790H11C4.92488 790 0 785.075 0 779V11Z" fill="#0C62AF" fill-opacity="0.06"/>
<path d="M354.555 763.69C521.099 763.69 656.11 755.808 656.11 746.084C656.11 736.361 521.099 728.479 354.555 728.479C188.011 728.479 53 736.361 53 746.084C53 755.808 188.011 763.69 354.555 763.69Z" fill="#F5F5F5"/>
<path d="M559.932 678.244C559.932 678.244 547.863 663.904 540.148 670.592C532.434 677.28 536.338 691.479 545.234 691.946C550.511 692.231 555.717 690.639 559.932 687.451V678.244Z" fill="#407BFF"/>
<path opacity="0.2" d="M559.932 678.244C559.932 678.244 547.863 663.904 540.148 670.592C532.434 677.28 536.338 691.479 545.234 691.946C550.511 692.231 555.717 690.639 559.932 687.451V678.244Z" fill="white"/>
<path d="M609.125 641.851C609.125 641.851 619.25 631.244 625.518 633.048C631.786 634.852 631.148 660.188 611.691 649.923L609.125 641.851Z" fill="#407BFF"/>
<path opacity="0.3" d="M609.125 641.851C609.125 641.851 619.25 631.244 625.518 633.048C631.786 634.852 631.148 660.188 611.691 649.923L609.125 641.851Z" fill="white"/>
<path d="M572.95 720.999C572.95 720.999 539.666 675.476 566.728 666.253C593.79 657.03 598.565 702.88 590.851 715.649C583.137 728.418 572.95 720.999 572.95 720.999Z" fill="#407BFF"/>
<path d="M588.379 627.79C588.379 627.79 609.033 579.856 578.456 578.41C547.879 576.963 544.535 625.939 579.732 633.047L588.379 627.79Z" fill="#407BFF"/>
<path opacity="0.3" d="M572.95 720.999C572.95 720.999 539.666 675.476 566.728 666.253C593.79 657.03 598.565 702.88 590.851 715.649C583.137 728.418 572.95 720.999 572.95 720.999Z" fill="white"/>
<path opacity="0.3" d="M588.379 627.79C588.379 627.79 609.033 579.856 578.456 578.41C547.879 576.963 544.535 625.939 579.732 633.047L588.379 627.79Z" fill="white"/>
<path d="M581.052 667.029C581.052 667.029 571.02 624.71 590.384 621.335C609.747 617.96 628.721 656.205 588.828 675.428C588.735 675.428 581.892 671.182 581.052 667.029Z" fill="#407BFF"/>
<path opacity="0.2" d="M581.052 667.029C581.052 667.029 571.02 624.71 590.384 621.335C609.747 617.96 628.721 656.205 588.828 675.428C588.735 675.428 581.892 671.182 581.052 667.029Z" fill="white"/>
<path d="M548.998 714.545H604.864L600.198 750.301H553.664L548.998 714.545Z" fill="#263238"/>
<path d="M578.052 624.4C566.543 615.986 558.564 599.717 565.361 586.015C565.081 587.29 564.739 588.675 564.428 589.95C562.157 602.937 569.28 615.332 578.052 624.4Z" fill="#407BFF"/>
<path d="M570.739 583.231C584.006 585.922 589.869 599.997 588.33 612.393C588.034 614.151 587.785 615.877 587.428 617.603C587.601 614.131 587.565 610.651 587.319 607.183C586.494 596.965 580.864 586.964 570.739 583.231Z" fill="#407BFF"/>
<path d="M594.069 624.4C601.519 627.029 606.185 635.21 606.201 642.955C606.201 649.705 602.468 655.833 598.3 660.872C595.261 664.531 591.788 667.806 587.957 670.624C591.341 667.377 594.461 663.867 597.289 660.125C600.757 655.459 603.805 650.405 604.567 644.65C605.221 636.656 601.317 628.133 593.992 624.431L594.069 624.4Z" fill="#407BFF"/>
<path d="M588.379 627.79C590.369 634.011 592.142 641.399 588.907 647.496C586.201 651.446 585.921 656.61 585.797 661.322C585.797 662.971 585.797 664.604 585.906 666.252C585.112 663.022 584.751 659.701 584.833 656.376C584.78 652.95 585.714 649.581 587.523 646.671C590.509 640.979 589.079 633.933 588.316 627.79H588.379Z" fill="#407BFF"/>
<path d="M574.815 670.592C582.592 674.589 585.702 701.433 585.407 709.878C585.174 708.168 584.909 706.472 584.583 704.777C583.105 696.316 581.565 687.824 579.326 679.535C578.284 676.424 577.615 672.598 574.815 670.592Z" fill="#407BFF"/>
<path d="M565.36 672.069C563.486 678.163 563.2 684.635 564.528 690.871C565.856 697.106 568.755 702.9 572.95 707.701C571.715 706.643 570.547 705.511 569.45 704.31C565.692 699.924 563.302 694.533 562.575 688.803C561.848 683.073 562.816 677.255 565.36 672.069Z" fill="#407BFF"/>
<path d="M616.979 647.013C620.526 646.064 623.543 645.209 626.125 642.596C625.487 646.562 620.448 648.429 616.979 647.013Z" fill="#407BFF"/>
<path d="M614.911 640.031C616.575 636.641 622.268 634.526 624.678 638.212C621.272 636.734 617.959 638.585 614.911 640.031Z" fill="#407BFF"/>
<path d="M554.426 680.391C550.538 677.653 546.51 672.987 541.486 675.429C545.577 670.577 552.451 676.005 554.426 680.391Z" fill="#407BFF"/>
<path d="M554.427 687.451C549.342 689.317 539.186 689.457 538.563 682.35C541.472 688.151 548.891 686.875 554.427 687.451Z" fill="#407BFF"/>
<path d="M456.662 719.271C456.929 718.73 457.06 718.131 457.045 717.528C457.03 716.924 456.869 716.333 456.575 715.805C456.282 715.278 455.864 714.829 455.359 714.498C454.854 714.167 454.276 713.964 453.675 713.905C454.191 712.366 454.224 710.706 453.771 709.147C453.318 707.588 452.4 706.204 451.14 705.18C450.841 704.892 450.45 704.716 450.036 704.683C449.596 704.73 449.182 704.915 448.854 705.211L441.871 710.235C441.303 710.575 440.824 711.044 440.471 711.604C439.04 714.372 444.204 717.918 442.026 720.204C441.42 720.873 440.471 720.998 439.678 721.48C438.014 722.522 437.811 724.808 437.034 726.612C436.256 728.416 433.55 729.801 432.508 728.167C433.286 726.441 430.953 724.948 429.086 724.73C427.22 724.513 425.245 724.404 424.218 722.646C421.543 724.979 415.586 718.478 415.711 715.865C414.661 716.054 413.696 716.566 412.951 717.33C412.207 718.094 411.72 719.072 411.558 720.127C411.255 722.29 411.176 724.479 411.325 726.659C411.325 730.905 409.894 735.057 409.972 739.303C409.972 742.601 411.309 746.255 414.327 747.593C415.821 748.126 417.411 748.338 418.992 748.215L453.411 747.997C454.241 748.061 455.073 747.922 455.837 747.593C457.393 746.784 457.719 744.747 457.859 743.005C458.461 735.529 459.077 728.053 459.71 720.578L456.662 719.271Z" fill="#407BFF"/>
<path opacity="0.3" d="M456.662 719.271C456.929 718.73 457.06 718.131 457.045 717.528C457.03 716.924 456.869 716.333 456.575 715.805C456.282 715.278 455.864 714.829 455.359 714.498C454.854 714.167 454.276 713.964 453.675 713.905C454.191 712.366 454.224 710.706 453.771 709.147C453.318 707.588 452.4 706.204 451.14 705.18C450.841 704.892 450.45 704.716 450.036 704.683C449.596 704.73 449.182 704.915 448.854 705.211L441.871 710.235C441.303 710.575 440.824 711.044 440.471 711.604C439.04 714.372 444.204 717.918 442.026 720.204C441.42 720.873 440.471 720.998 439.678 721.48C438.014 722.522 437.811 724.808 437.034 726.612C436.256 728.416 433.55 729.801 432.508 728.167C433.286 726.441 430.953 724.948 429.086 724.73C427.22 724.513 425.245 724.404 424.218 722.646C421.543 724.979 415.586 718.478 415.711 715.865C414.661 716.054 413.696 716.566 412.951 717.33C412.207 718.094 411.72 719.072 411.558 720.127C411.255 722.29 411.176 724.479 411.325 726.659C411.325 730.905 409.894 735.057 409.972 739.303C409.972 742.601 411.309 746.255 414.327 747.593C415.821 748.126 417.411 748.338 418.992 748.215L453.411 747.997C454.241 748.061 455.073 747.922 455.837 747.593C457.393 746.784 457.719 744.747 457.859 743.005C458.461 735.529 459.077 728.053 459.71 720.578L456.662 719.271Z" fill="white"/>
<path d="M458.762 682.816H405.275L405.711 688.213L406.038 692.07L406.846 702.086L407.313 707.856L407.919 715.508L408.184 718.805L408.277 719.785L408.588 723.642L409.024 728.946L409.288 732.227L409.552 735.571L409.864 739.428L410.112 742.352L410.377 745.634L410.486 747.065H459.493L459.602 745.634L459.866 742.368L460.115 739.413L460.426 735.556L460.69 732.227L460.955 728.946L461.39 723.627L461.701 719.785L461.779 718.805L462.043 715.508L462.666 707.856L463.132 702.101L463.941 692.07L464.252 688.213L464.687 682.816H458.762ZM461.966 686.362L460.939 685.32H462.059L461.966 686.362ZM461.701 689.628L461.608 690.935L456.818 695.709L451.343 690.235L456.242 685.32H457.393L461.701 689.628ZM460.317 706.736L456.818 710.236L451.343 704.745L456.818 699.286L460.613 703.066L460.317 706.736ZM409.506 703.066L413.301 699.286L418.775 704.745L413.301 710.236L409.817 706.736L409.506 703.066ZM454.982 697.498L449.43 702.972L444.018 697.498L449.492 692.023L454.982 697.498ZM446.319 685.32H452.541L449.43 688.431L446.319 685.32ZM447.688 704.73L442.213 710.22L436.723 704.73L442.213 699.271L447.688 704.73ZM429.476 711.993L434.966 706.518L440.425 711.993L434.966 717.468L429.476 711.993ZM433.177 719.241L427.656 724.731L422.259 719.272L427.734 713.782L433.177 719.241ZM442.213 713.766L447.719 719.272L442.245 724.746L436.754 719.272L442.213 713.766ZM434.966 702.972L429.507 697.498L434.997 692.023L440.456 697.498L434.966 702.972ZM433.177 704.73L427.703 710.22L422.228 704.73L427.703 699.271L433.177 704.73ZM420.439 702.972L414.996 697.498L420.471 692.023L425.961 697.498L420.439 702.972ZM420.439 706.518L425.93 711.993L420.439 717.468L414.965 711.993L420.439 706.518ZM425.93 726.504L420.439 731.979L414.965 726.504L420.439 721.029L425.93 726.504ZM427.687 728.277L433.177 733.752L427.703 739.242L422.228 733.752L427.687 728.277ZM429.476 726.504L434.966 721.029L440.425 726.504L434.966 731.979L429.476 726.504ZM442.213 728.277L447.688 733.752L442.213 739.242L436.723 733.752L442.213 728.277ZM449.461 735.525L454.951 741.015L451.39 744.561H447.564L444.018 741.046L449.461 735.525ZM443.987 726.504L449.461 721.029L454.951 726.504L449.43 731.979L443.987 726.504ZM443.987 711.993L449.43 706.518L454.92 711.993L449.43 717.468L443.987 711.993ZM447.688 690.219L442.213 695.694L436.723 690.219L441.638 685.304H442.789L447.688 690.219ZM434.966 688.446L431.855 685.335H438.076L434.966 688.446ZM433.177 690.219L427.703 695.694L422.228 690.219L427.127 685.304H428.278L433.177 690.219ZM423.581 685.304L420.471 688.415L417.36 685.304H423.581ZM413.767 685.304L418.666 690.219L413.192 695.694L408.417 690.919L408.324 689.613L412.616 685.304H413.767ZM409.101 685.304L408.091 686.331L407.997 685.304H409.101ZM408.759 694.792L411.45 697.467L409.164 699.753L408.759 694.792ZM410.315 713.16L410.112 710.562L411.512 711.978L410.315 713.16ZM410.579 716.472L413.285 713.751L418.76 719.241L413.285 724.715L411.077 722.507L410.579 716.472ZM411.403 726.597V726.364L411.528 726.488L411.419 726.597H411.403ZM412.352 738.277L411.668 729.879L413.223 728.324L418.698 733.798L413.223 739.273L412.29 738.34L412.352 738.277ZM412.85 744.499L412.756 743.239L413.285 742.71L415.058 744.499H412.85ZM415.058 740.953L420.533 735.462L426.023 740.953L422.461 744.499H418.604L415.058 740.953ZM426.023 744.499L427.796 742.71L429.585 744.499H426.023ZM433.115 744.499L429.507 741.046L434.997 735.556L440.456 741.046L436.988 744.561L433.115 744.499ZM440.518 744.499L442.307 742.71L444.08 744.499H440.518ZM457.238 744.499H455.029L456.802 742.71L457.331 743.239L457.238 744.499ZM457.751 738.277L456.802 739.211L451.327 733.736L456.802 728.261L458.357 729.817L457.751 738.277ZM458.715 726.348V726.597L458.606 726.488L458.746 726.348H458.715ZM459.026 722.507L456.802 724.715L451.265 719.272L456.74 713.782L459.462 716.503L459.026 722.507ZM459.788 713.175L458.575 711.978L459.99 710.562L459.788 713.175ZM461.344 694.776L460.939 699.769L458.513 697.498L461.219 694.807L461.344 694.776Z" fill="#407BFF"/>
<g opacity="0.6">
<path d="M458.762 682.814H405.275L405.711 688.211L406.038 692.068L406.846 702.084L407.313 707.855L407.919 715.507L408.184 718.804L408.277 719.784L408.588 723.641L409.024 728.944L409.288 732.226L409.552 735.57L409.864 739.427L410.112 742.351L410.377 745.633L410.486 747.063H459.493L459.602 745.633L459.866 742.366L460.115 739.411L460.426 735.554L460.69 732.226L460.955 728.944L461.39 723.625L461.701 719.784L461.779 718.804L462.043 715.507L462.666 707.855L463.132 702.1L463.941 692.068L464.252 688.211L464.687 682.814H458.762ZM461.966 686.361L460.939 685.318H462.059L461.966 686.361ZM461.701 689.627L461.608 690.933L456.818 695.708L451.343 690.233L456.242 685.318H457.393L461.701 689.627ZM460.317 706.735L456.818 710.234L451.343 704.744L456.818 699.285L460.613 703.064L460.317 706.735ZM409.506 703.064L413.301 699.285L418.775 704.744L413.301 710.234L409.817 706.735L409.506 703.064ZM454.982 697.496L449.43 702.971L444.018 697.496L449.492 692.022L454.982 697.496ZM446.319 685.318H452.541L449.43 688.429L446.319 685.318ZM447.688 704.728L442.213 710.219L436.723 704.728L442.213 699.269L447.688 704.728ZM429.476 711.992L434.966 706.517L440.425 711.992L434.966 717.466L429.476 711.992ZM433.177 719.239L427.656 724.729L422.259 719.27L427.734 713.78L433.177 719.239ZM442.213 713.765L447.719 719.27L442.245 724.745L436.754 719.27L442.213 713.765ZM434.966 702.971L429.507 697.496L434.997 692.022L440.456 697.496L434.966 702.971ZM433.177 704.728L427.703 710.219L422.228 704.728L427.703 699.269L433.177 704.728ZM420.439 702.971L414.996 697.496L420.471 692.022L425.961 697.496L420.439 702.971ZM420.439 706.517L425.93 711.992L420.439 717.466L414.965 711.992L420.439 706.517ZM425.93 726.502L420.439 731.977L414.965 726.502L420.439 721.028L425.93 726.502ZM427.687 728.276L433.177 733.75L427.703 739.24L422.228 733.75L427.687 728.276ZM429.476 726.502L434.966 721.028L440.425 726.502L434.966 731.977L429.476 726.502ZM442.213 728.276L447.688 733.75L442.213 739.24L436.723 733.75L442.213 728.276ZM449.461 735.523L454.951 741.013L451.39 744.559H447.564L444.018 741.044L449.461 735.523ZM443.987 726.502L449.461 721.028L454.951 726.502L449.43 731.977L443.987 726.502ZM443.987 711.992L449.43 706.517L454.92 711.992L449.43 717.466L443.987 711.992ZM447.688 690.218L442.213 695.692L436.723 690.218L441.638 685.303H442.789L447.688 690.218ZM434.966 688.445L431.855 685.334H438.076L434.966 688.445ZM433.177 690.218L427.703 695.692L422.228 690.218L427.127 685.303H428.278L433.177 690.218ZM423.581 685.303L420.471 688.413L417.36 685.303H423.581ZM413.767 685.303L418.666 690.218L413.192 695.692L408.417 690.917L408.324 689.611L412.616 685.303H413.767ZM409.101 685.303L408.091 686.329L407.997 685.303H409.101ZM408.759 694.79L411.45 697.465L409.164 699.752L408.759 694.79ZM410.315 713.158L410.112 710.561L411.512 711.976L410.315 713.158ZM410.579 716.471L413.285 713.749L418.76 719.239L413.285 724.714L411.077 722.505L410.579 716.471ZM411.403 726.596V726.363L411.528 726.487L411.419 726.596H411.403ZM412.352 738.276L411.668 729.877L413.223 728.322L418.698 733.797L413.223 739.271L412.29 738.338L412.352 738.276ZM412.85 744.497L412.756 743.237L413.285 742.709L415.058 744.497H412.85ZM415.058 740.951L420.533 735.461L426.023 740.951L422.461 744.497H418.604L415.058 740.951ZM426.023 744.497L427.796 742.709L429.585 744.497H426.023ZM433.115 744.497L429.507 741.044L434.997 735.554L440.456 741.044L436.988 744.559L433.115 744.497ZM440.518 744.497L442.307 742.709L444.08 744.497H440.518ZM457.238 744.497H455.029L456.802 742.709L457.331 743.237L457.238 744.497ZM457.751 738.276L456.802 739.209L451.327 733.735L456.802 728.26L458.357 729.815L457.751 738.276ZM458.715 726.347V726.596L458.606 726.487L458.746 726.347H458.715ZM459.026 722.505L456.802 724.714L451.265 719.27L456.74 713.78L459.462 716.502L459.026 722.505ZM459.788 713.174L458.575 711.976L459.99 710.561L459.788 713.174ZM461.344 694.775L460.939 699.767L458.513 697.496L461.219 694.806L461.344 694.775Z" fill="white"/>
</g>
<path d="M404.403 687.575H465.557C466.965 687.575 468.107 686.433 468.107 685.025V683.143C468.107 681.734 466.965 680.592 465.557 680.592H404.403C402.994 680.592 401.852 681.734 401.852 683.143V685.025C401.852 686.433 402.994 687.575 404.403 687.575Z" fill="#407BFF"/>
<path d="M460.784 743.316H409.195C407.787 743.316 406.645 744.458 406.645 745.867V747.749C406.645 749.158 407.787 750.3 409.195 750.3H460.784C462.193 750.3 463.335 749.158 463.335 747.749V745.867C463.335 744.458 462.193 743.316 460.784 743.316Z" fill="#407BFF"/>
<path d="M247.676 329.299H202.993C199.342 329.299 195.841 330.749 193.26 333.33C190.679 335.912 189.229 339.413 189.229 343.063V381.945C189.229 385.596 190.679 389.097 193.26 391.678C195.841 394.26 199.342 395.71 202.993 395.71H216.026L205.139 417.313L225.358 395.71H247.738C249.545 395.71 251.334 395.354 253.003 394.662C254.673 393.97 256.189 392.956 257.466 391.677C258.743 390.399 259.755 388.882 260.445 387.212C261.135 385.542 261.489 383.752 261.487 381.945V343.063C261.489 341.251 261.133 339.457 260.439 337.783C259.745 336.109 258.727 334.588 257.444 333.309C256.16 332.03 254.637 331.017 252.96 330.329C251.284 329.641 249.488 329.291 247.676 329.299Z" fill="#407BFF"/>
<path opacity="0.7" d="M247.676 329.299H202.993C199.342 329.299 195.841 330.749 193.26 333.33C190.679 335.912 189.229 339.413 189.229 343.063V381.945C189.229 385.596 190.679 389.097 193.26 391.678C195.841 394.26 199.342 395.71 202.993 395.71H216.026L205.139 417.313L225.358 395.71H247.738C249.545 395.71 251.334 395.354 253.003 394.662C254.673 393.97 256.189 392.956 257.466 391.677C258.743 390.399 259.755 388.882 260.445 387.212C261.135 385.542 261.489 383.752 261.487 381.945V343.063C261.489 341.251 261.133 339.457 260.439 337.783C259.745 336.109 258.727 334.588 257.444 333.309C256.16 332.03 254.637 331.017 252.96 330.329C251.284 329.641 249.488 329.291 247.676 329.299Z" fill="white"/>
<path d="M223.01 372.24C222.714 372.241 222.422 372.177 222.153 372.054C221.885 371.93 221.646 371.75 221.454 371.525L212.745 361.275C212.571 361.071 212.439 360.835 212.357 360.579C212.275 360.324 212.244 360.055 212.265 359.788C212.287 359.521 212.361 359.261 212.483 359.022C212.606 358.784 212.774 358.572 212.978 358.398C213.391 358.047 213.925 357.875 214.465 357.919C214.732 357.94 214.992 358.014 215.231 358.137C215.47 358.259 215.682 358.427 215.855 358.631L223.01 367.061L234.799 353.141C234.972 352.937 235.184 352.769 235.423 352.647C235.662 352.524 235.922 352.45 236.189 352.429C236.456 352.407 236.725 352.438 236.98 352.52C237.235 352.603 237.472 352.734 237.676 352.908C237.88 353.081 238.048 353.294 238.171 353.532C238.293 353.771 238.367 354.031 238.389 354.298C238.41 354.565 238.379 354.834 238.297 355.089C238.215 355.344 238.083 355.581 237.909 355.785L224.549 371.525C224.361 371.749 224.125 371.93 223.859 372.053C223.593 372.177 223.303 372.241 223.01 372.24Z" fill="white"/>
<path d="M241.006 378.018C249.667 369.357 249.667 355.314 241.006 346.653C232.344 337.992 218.302 337.992 209.641 346.653C200.979 355.314 200.979 369.357 209.641 378.018C218.302 386.679 232.344 386.679 241.006 378.018Z" fill="#407BFF"/>
<path d="M284.566 747.454H375.084C375.558 747.454 376.013 747.265 376.349 746.93C376.684 746.594 376.873 746.139 376.873 745.665V739.895C376.869 739.423 376.678 738.972 376.343 738.64C376.008 738.308 375.556 738.122 375.084 738.122H289.232V553.322H373.622C374.481 553.322 375.306 552.982 375.915 552.376C376.524 551.77 376.868 550.947 376.873 550.087V543.991H284.566C283.329 543.991 282.142 544.482 281.267 545.357C280.392 546.232 279.9 547.419 279.9 548.657V742.788C279.9 744.025 280.392 745.212 281.267 746.087C282.142 746.962 283.329 747.454 284.566 747.454Z" fill="#263238"/>
<g opacity="0.3">
<path d="M279.901 548.657V742.772C279.901 744.01 280.393 745.196 281.268 746.071C282.143 746.946 283.33 747.438 284.567 747.438H375.085C375.555 747.438 376.006 747.251 376.339 746.919C376.671 746.586 376.858 746.135 376.858 745.665V739.895C376.858 739.423 376.672 738.971 376.34 738.636C376.008 738.301 375.557 738.11 375.085 738.106H289.233V553.322H373.623C374.482 553.318 375.305 552.974 375.911 552.365C376.518 551.756 376.858 550.931 376.858 550.072V543.991H284.567C283.33 543.991 282.143 544.482 281.268 545.357C280.393 546.232 279.901 547.419 279.901 548.657Z" fill="white"/>
</g>
<path opacity="0.2" d="M279.9 548.657V598.161C283.011 598.949 286.122 599.712 289.232 600.448V553.322H373.622C374.481 553.318 375.304 552.974 375.91 552.365C376.517 551.756 376.857 550.931 376.857 550.072V543.991H284.566C283.329 543.991 282.142 544.482 281.267 545.357C280.392 546.232 279.9 547.419 279.9 548.657Z" fill="black"/>
<path d="M116.206 721.403L153.316 718.168V669.503H166.364V718.23L203.691 721.403C205.275 721.557 206.745 722.296 207.815 723.475C208.884 724.653 209.477 726.188 209.477 727.78V732.725H110.374V727.78C110.375 726.181 110.974 724.64 112.054 723.46C113.133 722.28 114.614 721.546 116.206 721.403Z" fill="#263238"/>
<path opacity="0.1" d="M116.206 721.403L153.316 718.168V669.503H166.364V718.23L203.691 721.403C205.275 721.557 206.745 722.296 207.815 723.475C208.884 724.653 209.477 726.188 209.477 727.78V732.725H110.374V727.78C110.375 726.181 110.974 724.64 112.054 723.46C113.133 722.28 114.614 721.546 116.206 721.403Z" fill="white"/>
<path d="M197.377 738.869C197.377 740.557 197.878 742.208 198.816 743.612C199.754 745.017 201.088 746.111 202.648 746.757C204.208 747.403 205.925 747.573 207.581 747.243C209.238 746.914 210.759 746.1 211.953 744.906C213.147 743.712 213.961 742.191 214.29 740.534C214.619 738.878 214.45 737.161 213.804 735.601C213.158 734.041 212.063 732.707 210.659 731.769C209.255 730.831 207.604 730.33 205.915 730.33C204.794 730.328 203.682 730.548 202.646 730.976C201.609 731.404 200.667 732.033 199.873 732.826C199.08 733.62 198.451 734.562 198.023 735.599C197.594 736.636 197.375 737.747 197.377 738.869Z" fill="#263238"/>
<path d="M122.429 738.869C122.429 740.558 121.927 742.21 120.989 743.614C120.05 745.019 118.715 746.113 117.154 746.759C115.593 747.404 113.875 747.573 112.219 747.242C110.562 746.911 109.04 746.096 107.847 744.901C106.653 743.705 105.841 742.182 105.514 740.525C105.186 738.868 105.357 737.15 106.006 735.59C106.655 734.03 107.751 732.698 109.158 731.762C110.564 730.825 112.216 730.327 113.906 730.33C115.026 730.33 116.136 730.551 117.171 730.98C118.206 731.41 119.146 732.039 119.938 732.832C120.729 733.625 121.357 734.566 121.784 735.602C122.212 736.638 122.431 737.748 122.429 738.869Z" fill="#263238"/>
<path d="M162.835 679.379H156.847C155.317 679.379 153.85 678.771 152.767 677.689C151.685 676.607 151.077 675.139 151.077 673.609V631.616H168.605V673.609C168.605 675.139 167.998 676.607 166.915 677.689C165.833 678.771 164.366 679.379 162.835 679.379Z" fill="#263238"/>
<path opacity="0.2" d="M162.835 679.379H156.847C155.317 679.379 153.85 678.771 152.767 677.689C151.685 676.607 151.077 675.139 151.077 673.609V631.616H168.605V673.609C168.605 675.139 167.998 676.607 166.915 677.689C165.833 678.771 164.366 679.379 162.835 679.379Z" fill="white"/>
<path d="M121.355 535.22C121.355 535.22 125.368 615.83 142.725 629.703H124.155C124.155 629.703 107.607 602.237 106.378 535.22H121.355Z" fill="#263238"/>
<path opacity="0.1" d="M121.355 535.22C121.355 535.22 125.368 615.83 142.725 629.703H124.155C124.155 629.703 107.607 602.237 106.378 535.22H121.355Z" fill="white"/>
<path d="M119.847 623.015H202.138C203.99 623.015 205.766 623.751 207.076 625.061C208.385 626.37 209.121 628.146 209.121 629.998V636.375H112.849V629.998C112.849 629.08 113.03 628.171 113.382 627.322C113.734 626.474 114.249 625.704 114.899 625.055C115.55 624.406 116.321 623.892 117.17 623.542C118.019 623.192 118.929 623.013 119.847 623.015Z" fill="#407BFF"/>
<path d="M209.993 629.703H112.009C110.455 629.703 109.194 630.963 109.194 632.518V633.56C109.194 635.114 110.455 636.375 112.009 636.375H209.993C211.547 636.375 212.808 635.114 212.808 633.56V632.518C212.808 630.963 211.547 629.703 209.993 629.703Z" fill="#263238"/>
<path opacity="0.6" d="M209.993 629.703H112.009C110.455 629.703 109.194 630.963 109.194 632.518V633.56C109.194 635.114 110.455 636.375 112.009 636.375H209.993C211.547 636.375 212.808 635.114 212.808 633.56V632.518C212.808 630.963 211.547 629.703 209.993 629.703Z" fill="white"/>
<path d="M103.112 552.856H132.864C141.574 552.856 147.857 545.08 146.862 535.359L145.602 522.481C144.638 512.823 136.815 504.984 128.105 504.984H98.3991C89.6895 504.984 83.4062 512.761 84.4015 522.481L85.6613 535.359C86.5634 545.08 94.4021 552.856 103.112 552.856Z" fill="#407BFF"/>
<path d="M201.299 483.318C203.149 489.182 205.327 495.294 207.722 500.893C209.744 505.559 212.621 511.5 215.903 514.626C218.889 517.286 225.997 518.297 230.616 518.903C236.837 519.697 243.463 519.992 249.917 520.256L251.068 528.966C244.226 530.803 237.209 531.913 230.134 532.279C222.233 532.559 213.026 532.279 206.182 527.426C196.244 519.65 191.92 509.292 187.519 498.358C186.275 494.89 185.155 491.717 184.206 488.078L201.314 483.318H201.299Z" fill="#B65B52"/>
<path d="M193.66 475.091C198.559 476.771 202.992 483.816 215.325 512.076C215.325 512.076 217.332 515.529 227.332 517.691L226.415 533.555C226.415 533.555 212.137 532.932 208.824 530.646C205.511 528.36 185.65 495.683 185.65 495.683L193.66 475.091Z" fill="#263238"/>
<path opacity="0.2" d="M227.333 517.722L226.416 533.586C226.416 533.586 214.969 533.088 210.194 531.331C209.713 531.169 209.253 530.95 208.826 530.677C206.913 529.34 199.494 517.846 193.506 508.39C189.167 501.516 185.729 495.714 185.729 495.714L193.661 475.091C198.561 476.771 202.993 483.816 215.342 512.06C215.342 512.092 217.333 515.529 227.333 517.722Z" fill="white"/>
<path opacity="0.2" d="M210.195 531.331C209.714 531.17 209.254 530.951 208.826 530.678C206.913 529.34 199.495 517.847 193.507 508.391C195.065 503.029 196.908 497.754 199.028 492.589C199.028 492.589 210.413 515.405 210.195 531.331Z" fill="black"/>
<path d="M246.524 521.051L257.676 517.038L256.307 531.969C256.307 531.969 246.073 533.275 244.813 527.894L246.524 521.051Z" fill="#B55B52"/>
<path d="M266.917 520.055L265.206 532.358L256.31 531.969L257.678 517.038L266.917 520.055Z" fill="#B55B52"/>
<path d="M227.411 517.038L233.104 518.749L231.02 534.177L225.327 535.157L227.411 517.038Z" fill="#263238"/>
<path d="M201.734 573.213C201.734 573.213 276.994 602.904 294.491 615.315C311.988 627.726 356.112 711.401 356.112 711.401L337.868 725.398C337.868 725.398 285.237 648.971 278.767 643.792C272.297 638.613 188.561 612.904 188.561 612.904L201.734 573.213Z" fill="#407BFF"/>
<path opacity="0.4" d="M356.112 711.402L337.868 725.4C337.868 725.4 325.581 707.56 312.159 688.539C297.804 668.181 282.142 646.546 278.814 643.794C274.148 639.999 228.034 625.223 203.6 617.571C194.611 614.741 188.561 612.906 188.561 612.906L201.718 573.168C201.718 573.168 276.963 602.858 294.476 615.27C311.988 627.681 356.112 711.402 356.112 711.402Z" fill="white"/>
<path d="M359.456 741.341L368.243 732.507L353.872 710.282L345.101 719.116L359.456 741.341Z" fill="#B55B52"/>
<path opacity="0.2" d="M345.101 719.116L353.872 710.298L362.084 723.005L353.001 731.372L345.101 719.116Z" fill="black"/>
<path d="M369.768 731.542C369.768 731.542 369.768 731.542 369.877 731.542C369.985 731.542 369.877 731.542 369.877 731.542C370.911 731.162 371.902 730.672 372.832 730.08C373.556 729.692 374.11 729.049 374.387 728.276C374.444 727.986 374.417 727.685 374.31 727.41C374.202 727.134 374.019 726.895 373.78 726.721C373.652 726.587 373.492 726.488 373.315 726.434C373.138 726.38 372.95 726.371 372.769 726.41C371.914 726.612 371.074 727.825 370.436 728.991C370.571 727.903 370.318 726.801 369.721 725.881C369.547 725.705 369.318 725.594 369.072 725.565C368.826 725.537 368.577 725.593 368.368 725.725C368.173 725.817 368.002 725.953 367.869 726.124C367.737 726.294 367.647 726.493 367.606 726.705C367.248 728.385 369.503 731.091 369.612 731.246L369.768 731.091L369.628 731.262C369.628 731.262 369.519 731.433 369.519 731.449C369.542 731.492 369.58 731.525 369.626 731.542C369.671 731.559 369.722 731.559 369.768 731.542ZM369.845 730.391C369.845 730.484 369.768 730.578 369.737 730.655C369.052 729.691 368.041 727.996 368.259 727.001C368.277 726.884 368.32 726.772 368.384 726.673C368.449 726.574 368.533 726.489 368.632 726.425H368.741C369.114 726.238 369.317 726.347 369.441 726.425C370.036 727.659 370.179 729.062 369.845 730.391ZM370.374 730.764C371.059 729.209 372.194 727.187 373.049 727.001C373.139 726.978 373.232 726.98 373.32 727.008C373.408 727.035 373.487 727.087 373.547 727.156C373.692 727.268 373.806 727.416 373.877 727.585C373.948 727.754 373.973 727.938 373.951 728.12C373.78 728.929 372.458 729.893 370.374 730.764Z" fill="#407BFF"/>
<path d="M368.071 730.75L356.469 738.526C356.368 738.585 356.281 738.664 356.212 738.757C356.142 738.851 356.092 738.957 356.065 739.07C356.037 739.183 356.033 739.301 356.051 739.416C356.07 739.531 356.111 739.641 356.173 739.739L361.772 749.304C362.093 749.788 362.592 750.125 363.16 750.242C363.729 750.358 364.32 750.245 364.805 749.926C368.802 747.142 370.575 745.618 375.692 742.15C380.351 739.285 384.804 736.099 389.021 732.616C392.847 729.054 389.223 725.368 387.294 726.535C382.629 729.288 374.728 730.47 370.28 730.143C369.495 730.082 368.714 730.296 368.071 730.75Z" fill="#263238"/>
<path d="M338.724 731.574L361.509 716.41L356.252 705.694L331.569 722.818L338.724 731.574Z" fill="#407BFF"/>
<path opacity="0.2" d="M338.724 731.574L361.509 716.41L356.252 705.694L331.569 722.818L338.724 731.574Z" fill="white"/>
<path opacity="0.2" d="M312.189 688.601C297.834 668.242 282.172 646.608 278.844 643.855C274.178 640.06 228.064 625.285 203.63 617.633L200.784 588.083L209.712 586.527L210.722 588.798C210.722 588.798 266.495 601.443 282.266 609.343C292.422 614.336 306.062 664.23 312.189 688.601Z" fill="black"/>
<path d="M308.846 734.497C308.863 734.505 308.881 734.508 308.9 734.508C308.919 734.508 308.937 734.505 308.954 734.497C310.059 734.485 311.159 734.354 312.236 734.108C313.06 733.992 313.809 733.57 314.336 732.926C314.49 732.679 314.572 732.394 314.572 732.102C314.572 731.811 314.49 731.525 314.336 731.278C314.259 731.108 314.14 730.96 313.99 730.849C313.841 730.737 313.665 730.665 313.48 730.64C312.609 730.531 311.412 731.418 310.37 732.304C310.846 731.34 310.962 730.236 310.696 729.194C310.593 728.97 310.416 728.789 310.196 728.678C309.976 728.568 309.724 728.536 309.483 728.587C309.27 728.619 309.066 728.695 308.884 728.81C308.702 728.926 308.546 729.077 308.426 729.256C307.539 730.733 308.768 734.031 308.83 734.217L309.017 734.108L308.83 734.233C308.83 734.233 308.659 734.357 308.675 734.373L308.846 734.497ZM309.312 733.424L309.11 733.642C308.628 732.379 308.562 730.994 308.923 729.691C308.982 729.59 309.06 729.503 309.154 729.433C309.247 729.363 309.354 729.314 309.468 729.287H309.608C310.012 729.287 310.168 729.411 310.23 729.567C310.386 730.921 310.062 732.286 309.312 733.424ZM309.67 733.953C310.836 732.709 312.578 731.184 313.449 731.293C313.541 731.303 313.628 731.337 313.702 731.391C313.776 731.446 313.833 731.52 313.869 731.604C313.956 731.764 314.002 731.943 314.002 732.125C314.002 732.307 313.956 732.487 313.869 732.646C313.496 733.346 311.941 733.828 309.67 733.953Z" fill="#407BFF"/>
<path d="M295.875 740.314L307.089 734.886L300.417 708.166L289.219 713.594L295.875 740.314Z" fill="#B55B52"/>
<path opacity="0.2" d="M289.219 713.595L300.417 708.183L304.227 723.456L292.874 728.324L289.219 713.595Z" fill="black"/>
<path d="M307.509 733.176L293.978 736.676C293.864 736.698 293.756 736.743 293.659 736.807C293.563 736.872 293.48 736.955 293.416 737.052C293.353 737.15 293.309 737.258 293.288 737.373C293.267 737.487 293.269 737.604 293.294 737.718L295.409 748.605C295.562 749.159 295.926 749.632 296.423 749.923C296.919 750.213 297.51 750.298 298.068 750.16C302.734 748.854 304.943 747.998 310.884 746.412C316.21 745.275 321.449 743.762 326.561 741.886C331.352 739.802 329.159 735.12 326.95 735.587C321.693 736.66 313.777 735.12 309.702 733.332C309.007 733.047 308.238 732.992 307.509 733.176Z" fill="#263238"/>
<path d="M305.875 713.238C305.875 713.238 286.901 618.039 283.013 612.377C276.698 603.046 200.769 588.006 200.769 588.006L209.681 586.451L199.385 559.078L131.776 561.737C131.776 561.737 133.192 606.405 140.066 618.381C146.94 630.356 248.641 635.862 255.251 638.6C261.861 641.337 282.033 716.006 282.033 716.006L305.875 713.238Z" fill="#407BFF"/>
<path opacity="0.4" d="M305.875 713.238C305.875 713.238 286.901 618.039 283.013 612.377C276.698 603.046 200.769 588.006 200.769 588.006L209.681 586.451L199.385 559.078L131.776 561.737C131.776 561.737 133.192 606.405 140.066 618.381C146.94 630.356 248.641 635.862 255.251 638.6C261.861 641.337 282.033 716.006 282.033 716.006L305.875 713.238Z" fill="white"/>
<path d="M282.436 724.435L308.969 717.685L307.554 705.833L278.595 713.812L282.436 724.435Z" fill="#407BFF"/>
<path opacity="0.2" d="M282.436 724.435L308.969 717.685L307.554 705.833L278.595 713.812L282.436 724.435Z" fill="white"/>
<path d="M153.177 562.779L133.58 562.452L133.16 568.378L154.017 568.875L153.177 562.779Z" fill="#263238"/>
<path d="M156.193 562.67L157.049 568.829L200.783 568.207L199.368 562.592L156.193 562.67Z" fill="#263238"/>
<path d="M177.254 563.743L177.814 567.803C177.896 568.298 178.153 568.748 178.538 569.071C178.923 569.393 179.411 569.567 179.914 569.56L186.912 569.342C187.144 569.347 187.374 569.299 187.585 569.203C187.795 569.107 187.982 568.965 188.131 568.788C188.28 568.61 188.388 568.402 188.446 568.178C188.504 567.953 188.512 567.719 188.468 567.492L187.892 563.417C187.81 562.922 187.553 562.474 187.167 562.154C186.781 561.835 186.293 561.664 185.793 561.675L178.809 561.892C178.578 561.888 178.348 561.936 178.137 562.032C177.926 562.128 177.739 562.27 177.59 562.447C177.441 562.624 177.334 562.833 177.275 563.057C177.217 563.281 177.21 563.516 177.254 563.743Z" fill="white"/>
<path d="M133.489 561.581H197.722C198.491 561.585 199.234 561.305 199.809 560.794C200.383 560.283 200.748 559.577 200.833 558.812C208.764 496.601 193.616 475.122 193.616 475.122C187.848 473.475 181.962 472.274 176.01 471.53C167.313 470.845 158.584 470.658 149.866 470.97C143.926 471.13 138.006 471.717 132.151 472.727C129.04 474.08 125.821 487.938 129.04 531.113C129.88 542.42 130.005 552.187 129.927 557.91C129.914 558.869 130.282 559.793 130.95 560.481C131.617 561.169 132.53 561.564 133.489 561.581Z" fill="#263238"/>
<path d="M184.655 497.13H197.035L197.969 511.905L191.327 516.213L184.655 512.916V497.13Z" fill="#263238"/>
<path opacity="0.2" d="M200.878 558.812C200.793 559.576 200.428 560.282 199.854 560.794C199.279 561.305 198.536 561.585 197.767 561.58H133.534C133.052 561.583 132.576 561.489 132.131 561.305C131.687 561.121 131.283 560.85 130.944 560.508C130.606 560.167 130.338 559.761 130.158 559.315C129.978 558.869 129.888 558.391 129.894 557.91C129.894 552.187 129.894 542.357 129.023 531.112C128.577 524.891 128.251 519.271 128.043 514.253C127.536 505.072 127.588 495.868 128.199 486.693C128.977 477.362 130.578 473.427 132.196 472.696C138.072 471.683 144.013 471.096 149.973 470.938C158.686 470.627 167.41 470.814 176.102 471.498C182.038 472.245 187.908 473.446 193.661 475.091C193.661 475.091 208.809 496.663 200.878 558.812Z" fill="white"/>
<path d="M150.501 470.333L171.249 477.409L172.088 471.468C170.066 467.922 169.553 465.682 171.264 461.561L157.422 445.65C157.78 453.8 156.302 464.936 150.501 470.333Z" fill="#B55B52"/>
<path d="M163.628 480.489L167.703 482.184L171.249 484.408C171.249 484.408 175.992 511.563 174.67 534.488L178.652 537.755L182.851 534.38C182.851 534.38 177.626 492.278 175.744 484.082L176.568 482.106L178.481 478.031L174.95 476.181L169.336 477.409H165.417L163.628 480.489Z" fill="white"/>
<path opacity="0.2" d="M163.053 452.136L171.249 461.561C170.634 463.005 170.139 464.498 169.772 466.024C166.303 464.982 161.995 460.363 162.197 456.599C162.209 455.072 162.499 453.559 163.053 452.136Z" fill="black"/>
<path d="M151.793 466.569C157.649 470.468 163.906 473.726 170.457 476.289C171.172 473.393 171.172 470.367 170.457 467.471L179.617 472.043C179.617 472.043 180.379 479.151 178.28 482.93L171.545 478L163.987 484.221C163.987 484.221 149.678 478.7 147.438 471.204L151.793 466.569Z" fill="#263238"/>
<path opacity="0.2" d="M198.466 521.75L177.252 538.858C146.799 545.639 133.408 526.649 128.027 514.207C127.52 505.026 127.571 495.822 128.182 486.647C135.492 486.305 144.591 486.305 147.048 488.203C151.325 491.484 166.225 514.487 168.449 516.198C170.673 517.909 198.466 521.75 198.466 521.75Z" fill="black"/>
<path d="M210.536 520.941L221.687 516.913L220.319 531.844C220.319 531.844 210.085 533.15 208.825 527.769L210.536 520.941Z" fill="#B55B52"/>
<path d="M230.908 519.93L229.213 532.233L220.316 531.844L221.685 516.913L230.908 519.93Z" fill="#B55B52"/>
<path d="M145.665 490.815C148.955 497.313 152.589 503.632 156.552 509.743C158.99 513.739 162.045 517.324 165.604 520.365C165.873 520.599 166.184 520.779 166.522 520.894C170.417 521.924 174.438 522.395 178.466 522.294C189.758 522.403 201.251 521.361 212.589 520.396L214.44 528.982C206.844 531.457 199.099 533.446 191.251 534.938C182.743 536.494 174.982 537.66 165.931 536.789C163.011 536.484 160.176 535.623 157.579 534.254C147.5 528.359 141.326 518.826 135.478 509.369C133.378 505.699 131.465 502.277 129.692 498.358L145.712 490.784L145.665 490.815Z" fill="#B65B52"/>
<path d="M132.149 472.728C112.086 479.96 138.106 529.947 149.055 535.546C160.005 541.145 178.481 538.858 178.481 538.858L179.788 521.486C179.788 521.486 170.207 520.319 167.346 519.635C162.789 518.546 153.581 498.421 147.376 487.487C143.951 481.11 138.63 475.952 132.149 472.728Z" fill="#263238"/>
<path opacity="0.2" d="M132.149 472.728C112.086 479.96 138.106 529.947 149.055 535.546C160.005 541.145 178.481 538.858 178.481 538.858L179.788 521.486C179.788 521.486 170.207 520.319 167.346 519.635C162.789 518.546 153.581 498.421 147.376 487.487C143.951 481.11 138.63 475.952 132.149 472.728Z" fill="white"/>
<path d="M177.205 520.18L175.588 540.352L181.342 539.279L182.851 521.253L177.205 520.18Z" fill="#263238"/>
<path d="M193.087 429.256C193.88 433.922 191.873 442.974 186.041 439.148C180.209 435.322 191.702 421.262 193.087 429.256Z" fill="#263238"/>
<path d="M160.145 430.921C157.906 442.306 156.008 448.854 160.145 456.039C166.366 466.833 181.655 465.184 187.269 454.686C192.324 445.214 195.139 428.246 185.294 420.983C183.114 419.393 180.567 418.381 177.89 418.04C175.214 417.698 172.494 418.039 169.985 419.031C167.475 420.023 165.257 421.633 163.537 423.712C161.817 425.79 160.65 428.27 160.145 430.921Z" fill="#B55B52"/>
<path d="M154.671 418.37L167.565 417.779L167.907 425.182L167.145 424.763C167.145 424.763 166.336 435.65 160.162 439.273C151.81 432.897 149.352 422.461 154.671 418.37Z" fill="#263238"/>
<path d="M153.332 439.133C153.413 440.57 153.777 441.976 154.405 443.271C155.032 444.565 155.91 445.723 156.987 446.676C159.896 449.212 163.037 447.019 163.644 443.41C164.188 440.16 163.333 434.918 159.74 433.768C158.947 433.535 158.108 433.502 157.299 433.671C156.49 433.84 155.735 434.206 155.101 434.736C154.467 435.267 153.974 435.946 153.666 436.713C153.357 437.48 153.243 438.311 153.332 439.133Z" fill="#B55B52"/>
<path d="M176.353 438.34C176.104 439.258 176.353 440.113 177.006 440.269C177.659 440.424 178.281 439.802 178.561 438.885C178.841 437.967 178.561 437.112 177.908 436.972C177.255 436.832 176.586 437.438 176.353 438.34Z" fill="#263238"/>
<path d="M186.693 440.952C186.459 441.855 186.693 442.725 187.346 442.865C187.999 443.005 188.637 442.399 188.901 441.497C189.166 440.595 188.901 439.724 188.248 439.568C187.595 439.413 186.942 440.035 186.693 440.952Z" fill="#263238"/>
<path d="M183.287 440.58C183.709 443.559 184.547 446.465 185.776 449.211C185.034 449.475 184.244 449.579 183.459 449.517C182.674 449.456 181.911 449.23 181.219 448.854L183.287 440.58Z" fill="#A02724"/>
<path d="M175.402 451.109C175.78 451.269 176.17 451.399 176.569 451.498C176.641 451.513 176.715 451.5 176.779 451.463C176.842 451.425 176.889 451.366 176.911 451.296C176.92 451.26 176.922 451.223 176.917 451.186C176.912 451.149 176.9 451.114 176.881 451.082C176.862 451.051 176.837 451.023 176.808 451.001C176.778 450.979 176.744 450.962 176.709 450.953C175.567 450.699 174.503 450.175 173.604 449.425C172.706 448.676 172 447.723 171.545 446.645C171.517 446.577 171.465 446.522 171.399 446.491C171.333 446.459 171.257 446.453 171.187 446.474C171.151 446.484 171.118 446.502 171.089 446.526C171.06 446.551 171.037 446.581 171.021 446.614C171.005 446.648 170.996 446.685 170.995 446.723C170.994 446.76 171.002 446.797 171.016 446.832C171.412 447.809 172.006 448.694 172.76 449.431C173.515 450.167 174.415 450.738 175.402 451.109Z" fill="#263238"/>
<path d="M174.032 434.219C174.123 434.254 174.222 434.263 174.317 434.247C174.413 434.23 174.503 434.189 174.577 434.126C175.114 433.679 175.748 433.363 176.428 433.204C177.108 433.044 177.816 433.046 178.496 433.208C178.565 433.232 178.639 433.242 178.712 433.237C178.785 433.232 178.857 433.212 178.922 433.179C178.988 433.145 179.046 433.099 179.093 433.043C179.14 432.986 179.175 432.921 179.196 432.85C179.22 432.783 179.23 432.712 179.226 432.64C179.222 432.569 179.203 432.499 179.171 432.435C179.139 432.371 179.095 432.314 179.04 432.268C178.985 432.222 178.922 432.187 178.854 432.166C177.999 431.938 177.102 431.919 176.238 432.111C175.374 432.304 174.57 432.701 173.892 433.27C173.834 433.315 173.785 433.37 173.749 433.433C173.713 433.497 173.689 433.567 173.681 433.639C173.672 433.712 173.678 433.786 173.698 433.856C173.719 433.926 173.753 433.991 173.799 434.048C173.863 434.122 173.943 434.18 174.032 434.219Z" fill="#263238"/>
<path d="M192.091 438.528C192.186 438.562 192.287 438.57 192.386 438.553C192.485 438.535 192.578 438.492 192.655 438.427C192.732 438.363 192.791 438.279 192.826 438.185C192.861 438.091 192.87 437.989 192.853 437.89C192.689 437.027 192.321 436.215 191.78 435.522C191.239 434.83 190.541 434.277 189.743 433.908C189.604 433.856 189.451 433.86 189.315 433.918C189.179 433.975 189.07 434.084 189.012 434.219C188.96 434.356 188.964 434.507 189.022 434.64C189.08 434.774 189.188 434.879 189.323 434.935C189.942 435.223 190.483 435.657 190.9 436.198C191.317 436.739 191.597 437.373 191.718 438.045C191.73 438.152 191.772 438.253 191.837 438.338C191.903 438.423 191.991 438.489 192.091 438.528Z" fill="#263238"/>
<path d="M163.163 427.531C163.41 427.74 163.675 427.928 163.956 428.091C164.702 428.537 165.549 428.79 166.418 428.825C167.288 428.86 168.152 428.677 168.933 428.293C172.137 426.737 173.148 417.592 182.261 422.243C183.263 422.001 184.313 422.055 185.284 422.397C186.256 422.739 187.107 423.356 187.736 424.171C190.085 427.049 188.467 437.547 193.475 436.1C198.483 434.654 197.612 433.099 197.612 433.099C197.612 433.099 196.212 433.985 195.388 433.285C196.131 432.661 196.66 431.82 196.902 430.881C197.145 429.941 197.089 428.95 196.741 428.044C196.741 428.044 195.528 429.49 194.719 429.21C195.555 424.963 195.072 420.562 193.335 416.597C190.427 409.349 172.634 410.967 172.634 410.967C172.634 410.967 170.395 407.219 162.354 409.831C154.313 412.444 150.642 422.134 151.918 426.349" fill="#263238"/>
<path d="M269.325 530.678L268.174 526.339H221.002L199.29 528.501L198.466 530.678H269.325Z" fill="#263238"/>
<path opacity="0.5" d="M269.325 530.678L268.174 526.339H221.002L199.29 528.501L198.466 530.678H269.325Z" fill="white"/>
<path opacity="0.2" d="M221.002 526.339V530.678H269.325L268.174 526.339H221.002Z" fill="black"/>
<path d="M236.961 505.56C236.899 506.086 236.95 506.619 237.111 507.124C237.272 507.629 237.538 508.093 237.893 508.487C238.248 508.88 238.683 509.193 239.169 509.404C239.655 509.615 240.18 509.721 240.709 509.713H312.968C314.097 509.686 315.178 509.25 316.011 508.486C316.843 507.722 317.37 506.683 317.494 505.56L321.787 459.306C321.828 458.858 321.796 458.406 321.693 457.968C321.495 457.153 321.025 456.43 320.361 455.918C319.696 455.406 318.877 455.136 318.038 455.153H245.78C244.65 455.18 243.569 455.616 242.737 456.38C241.905 457.143 241.378 458.183 241.254 459.306L236.961 505.56Z" fill="#263238"/>
<path opacity="0.5" d="M236.961 505.56C236.899 506.086 236.95 506.619 237.111 507.124C237.272 507.629 237.538 508.093 237.893 508.487C238.248 508.88 238.683 509.193 239.169 509.404C239.655 509.615 240.18 509.721 240.709 509.713H312.968C314.097 509.686 315.178 509.25 316.011 508.486C316.843 507.722 317.37 506.683 317.494 505.56L321.787 459.306C321.828 458.858 321.796 458.406 321.693 457.968C321.495 457.153 321.025 456.43 320.361 455.918C319.696 455.406 318.877 455.136 318.038 455.153H245.78C244.65 455.18 243.569 455.616 242.737 456.38C241.905 457.143 241.378 458.183 241.254 459.306L236.961 505.56Z" fill="white"/>
<path opacity="0.1" d="M241.019 509.713H313.013C314.142 509.686 315.224 509.25 316.056 508.486C316.888 507.722 317.415 506.683 317.539 505.56L321.832 459.306C321.873 458.858 321.841 458.406 321.738 457.968H249.729C248.602 457.999 247.525 458.436 246.696 459.2C245.867 459.963 245.342 461.001 245.218 462.121L240.926 508.375C240.877 508.823 240.908 509.276 241.019 509.713Z" fill="black"/>
<path d="M290.601 481.343H275.655L279.637 524.145L256.012 527.691V530.677H305.796V527.691L295.594 524.145L290.601 481.343Z" fill="#263238"/>
<path opacity="0.5" d="M290.601 481.343H275.655L279.637 524.145L256.012 527.691V530.677H305.796V527.691L295.594 524.145L290.601 481.343Z" fill="white"/>
<path opacity="0.2" d="M275.657 481.343L286.731 529.993L295.596 529.728L290.604 481.343H275.657Z" fill="white"/>
<path d="M152.276 747.454H242.794C243.028 747.454 243.26 747.407 243.476 747.317C243.692 747.227 243.888 747.095 244.053 746.929C244.218 746.762 244.348 746.565 244.437 746.348C244.525 746.131 244.569 745.899 244.567 745.665V739.895C244.567 739.425 244.38 738.974 244.048 738.641C243.715 738.309 243.264 738.122 242.794 738.122H156.942V553.322H241.332C242.19 553.322 243.013 552.982 243.619 552.375C244.226 551.768 244.567 550.945 244.567 550.087V543.991H152.276C151.039 543.991 149.852 544.482 148.977 545.357C148.102 546.232 147.61 547.419 147.61 548.657V742.788C147.61 744.025 148.102 745.212 148.977 746.087C149.852 746.962 151.039 747.454 152.276 747.454Z" fill="#263238"/>
<g opacity="0.4">
<path d="M152.274 747.454H242.792C243.026 747.454 243.258 747.407 243.474 747.317C243.69 747.227 243.886 747.095 244.051 746.929C244.216 746.762 244.346 746.565 244.435 746.348C244.523 746.131 244.567 745.899 244.565 745.665V739.895C244.565 739.425 244.378 738.974 244.046 738.641C243.713 738.309 243.262 738.122 242.792 738.122H156.94V553.322H241.33C242.188 553.322 243.011 552.982 243.618 552.375C244.224 551.768 244.565 550.945 244.565 550.087V543.991H152.274C151.037 543.991 149.85 544.482 148.975 545.357C148.1 546.232 147.608 547.419 147.608 548.657V742.788C147.608 744.025 148.1 745.212 148.975 746.087C149.85 746.962 151.037 747.454 152.274 747.454Z" fill="white"/>
</g>
<path d="M379.285 545.547H140.672C139.872 545.547 139.104 545.229 138.539 544.663C137.973 544.097 137.655 543.33 137.655 542.53V535.189H382.302V542.545C382.298 543.343 381.978 544.106 381.413 544.669C380.847 545.231 380.082 545.547 379.285 545.547Z" fill="#407BFF"/>
<path opacity="0.2" d="M137.655 540.351H382.302V535.172H137.655V540.351Z" fill="black"/>
<path d="M132.538 536.511H387.45C388.223 536.511 388.964 536.205 389.512 535.66C390.06 535.115 390.37 534.375 390.374 533.603C390.374 532.827 390.066 532.083 389.517 531.535C388.969 530.987 388.225 530.679 387.45 530.679H132.538C131.763 530.679 131.019 530.987 130.471 531.535C129.922 532.083 129.614 532.827 129.614 533.603C129.618 534.375 129.928 535.115 130.476 535.66C131.024 536.205 131.765 536.511 132.538 536.511Z" fill="#407BFF"/>
<rect x="391.923" y="289.768" width="58.0825" height="25.6468" rx="5.28023" fill="#0C62AF" fill-opacity="0.27"/>
<rect x="444.726" y="338.044" width="58.0825" height="25.6468" rx="5.28023" fill="#0C62AF" fill-opacity="0.27"/>
<rect x="386.644" y="403.802" width="58.0825" height="25.6468" rx="5.28023" fill="#0C62AF" fill-opacity="0.27"/>
<rect x="473.298" y="423.661" width="58.0825" height="25.6468" rx="5.28023" fill="#0C62AF" fill-opacity="0.27"/>
<rect x="496.021" y="273.172" width="58.0825" height="25.6468" rx="5.28023" fill="#0C62AF" fill-opacity="0.27"/>
<rect x="565.417" y="312.396" width="58.0825" height="25.6468" rx="5.28023" fill="#0C62AF" fill-opacity="0.27"/>
<rect x="511.859" y="353.566" width="58.0825" height="25.6468" rx="5.28023" fill="#0C62AF" fill-opacity="0.27"/>
<rect x="347" y="348.2" width="58.0825" height="25.6468" rx="5.28023" fill="#0C62AF" fill-opacity="0.27"/>
<rect x="487.596" y="480.057" width="58.0825" height="25.6468" rx="5.28023" fill="#0C62AF" fill-opacity="0.27"/>
<rect x="557.496" y="438.752" width="58.0825" height="25.6468" rx="5.28023" fill="#0C62AF" fill-opacity="0.27"/>
<rect x="408.957" y="464.171" width="58.0825" height="25.6468" rx="5.28023" fill="#0C62AF" fill-opacity="0.27"/>
<rect x="601.978" y="360.115" width="58.0825" height="25.6468" rx="5.28023" fill="#0C62AF" fill-opacity="0.27"/>
<rect x="569.941" y="243" width="58.0825" height="25.6468" rx="5.28023" fill="#0C62AF" fill-opacity="0.27"/>
<path d="M414.75 306.866C414.515 306.866 414.314 306.783 414.145 306.618C413.977 306.449 413.893 306.246 413.893 306.009C413.893 305.775 413.977 305.575 414.145 305.409C414.314 305.24 414.515 305.156 414.75 305.156C414.984 305.156 415.185 305.24 415.354 305.409C415.523 305.575 415.607 305.775 415.607 306.009C415.607 306.166 415.567 306.31 415.487 306.442C415.41 306.57 415.307 306.673 415.178 306.75C415.05 306.828 414.907 306.866 414.75 306.866ZM417.323 306.785V300.202H418.605V306.785H417.323ZM417.971 299.186C417.748 299.186 417.556 299.111 417.396 298.963C417.239 298.811 417.161 298.631 417.161 298.423C417.161 298.211 417.239 298.031 417.396 297.883C417.556 297.731 417.748 297.656 417.971 297.656C418.193 297.656 418.383 297.731 418.541 297.883C418.701 298.031 418.781 298.211 418.781 298.423C418.781 298.631 418.701 298.811 418.541 298.963C418.383 299.111 418.193 299.186 417.971 299.186ZM421.61 302.876V306.785H420.329V300.202H421.559V301.273H421.64C421.792 300.924 422.029 300.644 422.352 300.433C422.678 300.222 423.088 300.116 423.582 300.116C424.03 300.116 424.423 300.21 424.761 300.399C425.098 300.584 425.359 300.862 425.545 301.23C425.731 301.599 425.823 302.054 425.823 302.597V306.785H424.542V302.752C424.542 302.274 424.418 301.902 424.169 301.633C423.92 301.362 423.579 301.226 423.145 301.226C422.848 301.226 422.583 301.29 422.352 301.419C422.123 301.547 421.942 301.736 421.808 301.984C421.676 302.23 421.61 302.527 421.61 302.876Z" fill="white"/>
<path d="M460.762 355.143C460.528 355.143 460.327 355.06 460.158 354.894C459.99 354.726 459.905 354.523 459.905 354.286C459.905 354.051 459.99 353.851 460.158 353.686C460.327 353.517 460.528 353.433 460.762 353.433C460.997 353.433 461.198 353.517 461.367 353.686C461.535 353.851 461.62 354.051 461.62 354.286C461.62 354.443 461.58 354.587 461.5 354.719C461.422 354.847 461.32 354.95 461.191 355.027C461.062 355.104 460.92 355.143 460.762 355.143ZM466.109 355.194C465.472 355.194 464.923 355.05 464.463 354.762C464.006 354.47 463.655 354.069 463.409 353.557C463.163 353.046 463.04 352.46 463.04 351.8C463.04 351.131 463.166 350.541 463.418 350.03C463.669 349.516 464.023 349.114 464.48 348.826C464.938 348.537 465.476 348.393 466.096 348.393C466.596 348.393 467.042 348.486 467.433 348.671C467.825 348.854 468.141 349.111 468.381 349.443C468.623 349.774 468.768 350.161 468.813 350.604H467.566C467.498 350.296 467.341 350.03 467.095 349.807C466.852 349.584 466.526 349.473 466.118 349.473C465.761 349.473 465.448 349.567 465.179 349.756C464.913 349.941 464.706 350.207 464.558 350.553C464.409 350.896 464.335 351.301 464.335 351.77C464.335 352.25 464.408 352.664 464.553 353.013C464.699 353.361 464.905 353.631 465.17 353.823C465.439 354.014 465.755 354.11 466.118 354.11C466.361 354.11 466.581 354.066 466.778 353.977C466.978 353.886 467.145 353.756 467.279 353.587C467.416 353.419 467.512 353.216 467.566 352.979H468.813C468.768 353.404 468.629 353.784 468.398 354.119C468.166 354.453 467.856 354.716 467.468 354.907C467.082 355.099 466.629 355.194 466.109 355.194ZM472.957 355.194C472.34 355.194 471.801 355.053 471.341 354.77C470.881 354.487 470.524 354.091 470.27 353.583C470.015 353.074 469.888 352.48 469.888 351.8C469.888 351.117 470.015 350.52 470.27 350.008C470.524 349.497 470.881 349.1 471.341 348.817C471.801 348.534 472.34 348.393 472.957 348.393C473.574 348.393 474.113 348.534 474.573 348.817C475.033 349.1 475.39 349.497 475.644 350.008C475.898 350.52 476.026 351.117 476.026 351.8C476.026 352.48 475.898 353.074 475.644 353.583C475.39 354.091 475.033 354.487 474.573 354.77C474.113 355.053 473.574 355.194 472.957 355.194ZM472.961 354.119C473.361 354.119 473.693 354.013 473.956 353.801C474.218 353.59 474.413 353.309 474.538 352.957C474.667 352.606 474.731 352.219 474.731 351.796C474.731 351.376 474.667 350.99 474.538 350.638C474.413 350.284 474.218 350 473.956 349.786C473.693 349.571 473.361 349.464 472.961 349.464C472.558 349.464 472.224 349.571 471.958 349.786C471.695 350 471.5 350.284 471.371 350.638C471.245 350.99 471.183 351.376 471.183 351.796C471.183 352.219 471.245 352.606 471.371 352.957C471.5 353.309 471.695 353.59 471.958 353.801C472.224 354.013 472.558 354.119 472.961 354.119ZM477.456 355.062V348.478H478.686V349.55H478.767C478.905 349.187 479.129 348.904 479.44 348.701C479.752 348.496 480.125 348.393 480.559 348.393C480.999 348.393 481.368 348.496 481.665 348.701C481.965 348.907 482.186 349.19 482.329 349.55H482.398C482.555 349.198 482.805 348.918 483.148 348.71C483.491 348.498 483.899 348.393 484.373 348.393C484.971 348.393 485.458 348.58 485.835 348.954C486.215 349.328 486.405 349.893 486.405 350.647V355.062H485.123V350.767C485.123 350.321 485.002 349.998 484.759 349.798C484.516 349.598 484.226 349.498 483.889 349.498C483.472 349.498 483.148 349.627 482.916 349.884C482.685 350.138 482.569 350.466 482.569 350.866V355.062H481.292V350.686C481.292 350.328 481.18 350.041 480.958 349.824C480.735 349.607 480.445 349.498 480.088 349.498C479.845 349.498 479.62 349.563 479.415 349.691C479.212 349.817 479.048 349.993 478.922 350.218C478.799 350.444 478.737 350.706 478.737 351.003V355.062H477.456Z" fill="white"/>
<path d="M402.681 420.901C402.447 420.901 402.246 420.818 402.077 420.652C401.908 420.484 401.824 420.281 401.824 420.044C401.824 419.809 401.908 419.609 402.077 419.444C402.246 419.275 402.447 419.191 402.681 419.191C402.916 419.191 403.117 419.275 403.286 419.444C403.454 419.609 403.539 419.809 403.539 420.044C403.539 420.201 403.499 420.345 403.419 420.476C403.341 420.605 403.239 420.708 403.11 420.785C402.981 420.862 402.839 420.901 402.681 420.901ZM408.028 420.952C407.391 420.952 406.842 420.808 406.382 420.519C405.925 420.228 405.574 419.826 405.328 419.315C405.082 418.804 404.959 418.218 404.959 417.558C404.959 416.889 405.085 416.299 405.336 415.788C405.588 415.273 405.942 414.872 406.399 414.583C406.857 414.295 407.395 414.15 408.015 414.15C408.515 414.15 408.961 414.243 409.352 414.429C409.744 414.612 410.06 414.869 410.3 415.201C410.542 415.532 410.687 415.919 410.732 416.362H409.485C409.417 416.053 409.26 415.788 409.014 415.565C408.771 415.342 408.445 415.231 408.037 415.231C407.679 415.231 407.367 415.325 407.098 415.513C406.832 415.699 406.625 415.965 406.477 416.311C406.328 416.653 406.254 417.059 406.254 417.528C406.254 418.008 406.327 418.422 406.472 418.771C406.618 419.119 406.824 419.389 407.089 419.581C407.358 419.772 407.674 419.868 408.037 419.868C408.279 419.868 408.499 419.824 408.697 419.735C408.897 419.644 409.064 419.514 409.198 419.345C409.335 419.176 409.431 418.974 409.485 418.736H410.732C410.687 419.162 410.548 419.542 410.317 419.876C410.085 420.211 409.775 420.474 409.387 420.665C409.001 420.856 408.548 420.952 408.028 420.952ZM414.876 420.952C414.259 420.952 413.72 420.811 413.26 420.528C412.8 420.245 412.443 419.849 412.189 419.341C411.934 418.832 411.807 418.238 411.807 417.558C411.807 416.875 411.934 416.278 412.189 415.766C412.443 415.255 412.8 414.858 413.26 414.575C413.72 414.292 414.259 414.15 414.876 414.15C415.493 414.15 416.032 414.292 416.492 414.575C416.952 414.858 417.309 415.255 417.563 415.766C417.817 416.278 417.945 416.875 417.945 417.558C417.945 418.238 417.817 418.832 417.563 419.341C417.309 419.849 416.952 420.245 416.492 420.528C416.032 420.811 415.493 420.952 414.876 420.952ZM414.88 419.876C415.28 419.876 415.612 419.771 415.874 419.559C416.137 419.348 416.332 419.066 416.457 418.715C416.586 418.364 416.65 417.976 416.65 417.553C416.65 417.133 416.586 416.748 416.457 416.396C416.332 416.042 416.137 415.758 415.874 415.543C415.612 415.329 415.28 415.222 414.88 415.222C414.477 415.222 414.143 415.329 413.877 415.543C413.614 415.758 413.419 416.042 413.29 416.396C413.164 416.748 413.101 417.133 413.101 417.553C413.101 417.976 413.164 418.364 413.29 418.715C413.419 419.066 413.614 419.348 413.877 419.559C414.143 419.771 414.477 419.876 414.88 419.876ZM419.375 420.819V414.236H420.605V415.308H420.686C420.824 414.945 421.048 414.662 421.359 414.459C421.671 414.253 422.044 414.15 422.478 414.15C422.918 414.15 423.287 414.253 423.584 414.459C423.884 414.665 424.105 414.948 424.248 415.308H424.317C424.474 414.956 424.724 414.676 425.067 414.468C425.41 414.256 425.818 414.15 426.292 414.15C426.89 414.15 427.377 414.338 427.754 414.712C428.134 415.086 428.324 415.651 428.324 416.405V420.819H427.042V416.525C427.042 416.079 426.921 415.756 426.678 415.556C426.435 415.356 426.145 415.256 425.808 415.256C425.391 415.256 425.067 415.385 424.835 415.642C424.604 415.896 424.488 416.223 424.488 416.623V420.819H423.211V416.443C423.211 416.086 423.099 415.799 422.877 415.582C422.654 415.365 422.364 415.256 422.006 415.256C421.764 415.256 421.539 415.321 421.334 415.449C421.131 415.575 420.966 415.751 420.841 415.976C420.718 416.202 420.656 416.463 420.656 416.761V420.819H419.375Z" fill="white"/>
<path d="M489.335 440.759C489.1 440.759 488.899 440.676 488.73 440.511C488.562 440.342 488.478 440.139 488.478 439.902C488.478 439.668 488.562 439.468 488.73 439.302C488.899 439.133 489.1 439.049 489.335 439.049C489.569 439.049 489.77 439.133 489.939 439.302C490.108 439.468 490.192 439.668 490.192 439.902C490.192 440.059 490.152 440.203 490.072 440.335C489.995 440.463 489.892 440.566 489.763 440.643C489.635 440.721 489.492 440.759 489.335 440.759ZM494.681 440.811C494.044 440.811 493.496 440.666 493.036 440.378C492.578 440.086 492.227 439.685 491.981 439.173C491.736 438.662 491.613 438.076 491.613 437.416C491.613 436.748 491.738 436.158 491.99 435.646C492.241 435.132 492.596 434.73 493.053 434.442C493.51 434.153 494.048 434.009 494.668 434.009C495.169 434.009 495.614 434.102 496.006 434.287C496.397 434.47 496.713 434.727 496.953 435.059C497.196 435.39 497.34 435.778 497.386 436.22H496.139C496.07 435.912 495.913 435.646 495.667 435.423C495.424 435.2 495.099 435.089 494.69 435.089C494.333 435.089 494.02 435.183 493.751 435.372C493.486 435.558 493.278 435.823 493.13 436.169C492.981 436.512 492.907 436.918 492.907 437.386C492.907 437.866 492.98 438.28 493.126 438.629C493.271 438.978 493.477 439.248 493.743 439.439C494.011 439.631 494.327 439.726 494.69 439.726C494.933 439.726 495.153 439.682 495.35 439.593C495.55 439.502 495.717 439.372 495.851 439.203C495.989 439.035 496.084 438.832 496.139 438.595H497.386C497.34 439.021 497.201 439.401 496.97 439.735C496.739 440.069 496.429 440.332 496.04 440.523C495.654 440.715 495.201 440.811 494.681 440.811ZM501.529 440.811C500.912 440.811 500.373 440.669 499.913 440.386C499.453 440.103 499.096 439.708 498.842 439.199C498.588 438.691 498.46 438.096 498.46 437.416C498.46 436.733 498.588 436.136 498.842 435.625C499.096 435.113 499.453 434.716 499.913 434.433C500.373 434.15 500.912 434.009 501.529 434.009C502.146 434.009 502.685 434.15 503.145 434.433C503.605 434.716 503.962 435.113 504.216 435.625C504.471 436.136 504.598 436.733 504.598 437.416C504.598 438.096 504.471 438.691 504.216 439.199C503.962 439.708 503.605 440.103 503.145 440.386C502.685 440.669 502.146 440.811 501.529 440.811ZM501.533 439.735C501.933 439.735 502.265 439.629 502.528 439.418C502.791 439.206 502.985 438.925 503.111 438.573C503.239 438.222 503.304 437.835 503.304 437.412C503.304 436.992 503.239 436.606 503.111 436.255C502.985 435.9 502.791 435.616 502.528 435.402C502.265 435.187 501.933 435.08 501.533 435.08C501.131 435.08 500.796 435.187 500.531 435.402C500.268 435.616 500.072 435.9 499.943 436.255C499.818 436.606 499.755 436.992 499.755 437.412C499.755 437.835 499.818 438.222 499.943 438.573C500.072 438.925 500.268 439.206 500.531 439.418C500.796 439.629 501.131 439.735 501.533 439.735ZM506.028 440.678V434.095H507.258V435.166H507.34C507.477 434.803 507.701 434.52 508.013 434.317C508.324 434.112 508.697 434.009 509.131 434.009C509.571 434.009 509.94 434.112 510.237 434.317C510.537 434.523 510.758 434.806 510.901 435.166H510.97C511.127 434.815 511.377 434.535 511.72 434.326C512.063 434.115 512.471 434.009 512.946 434.009C513.543 434.009 514.03 434.196 514.407 434.57C514.787 434.945 514.977 435.509 514.977 436.263V440.678H513.696V436.383C513.696 435.938 513.574 435.615 513.331 435.415C513.089 435.215 512.799 435.115 512.461 435.115C512.044 435.115 511.72 435.243 511.489 435.5C511.257 435.755 511.141 436.082 511.141 436.482V440.678H509.864V436.302C509.864 435.945 509.753 435.658 509.53 435.44C509.307 435.223 509.017 435.115 508.66 435.115C508.417 435.115 508.193 435.179 507.987 435.308C507.784 435.433 507.62 435.609 507.494 435.835C507.371 436.06 507.31 436.322 507.31 436.619V440.678H506.028Z" fill="white"/>
<path d="M513.565 291.026C513.331 291.026 513.129 290.943 512.961 290.777C512.792 290.609 512.708 290.406 512.708 290.169C512.708 289.934 512.792 289.734 512.961 289.569C513.129 289.4 513.331 289.316 513.565 289.316C513.799 289.316 514.001 289.4 514.169 289.569C514.338 289.734 514.422 289.934 514.422 290.169C514.422 290.326 514.382 290.47 514.302 290.601C514.225 290.73 514.122 290.833 513.994 290.91C513.865 290.987 513.722 291.026 513.565 291.026ZM518.603 291.073C518.072 291.073 517.597 290.937 517.18 290.666C516.766 290.391 516.44 290.001 516.203 289.496C515.969 288.987 515.852 288.377 515.852 287.666C515.852 286.954 515.97 286.346 516.207 285.84C516.447 285.334 516.776 284.947 517.193 284.678C517.61 284.41 518.083 284.275 518.612 284.275C519.02 284.275 519.349 284.344 519.598 284.481C519.849 284.615 520.043 284.773 520.18 284.953C520.32 285.133 520.429 285.291 520.506 285.428H520.583V282.167H521.865V290.944H520.613V289.92H520.506C520.429 290.06 520.318 290.22 520.172 290.4C520.029 290.58 519.832 290.737 519.58 290.871C519.329 291.006 519.003 291.073 518.603 291.073ZM518.886 289.98C519.255 289.98 519.566 289.883 519.82 289.689C520.078 289.491 520.272 289.219 520.403 288.87C520.538 288.521 520.605 288.116 520.605 287.653C520.605 287.196 520.539 286.796 520.408 286.453C520.276 286.11 520.083 285.843 519.829 285.651C519.575 285.46 519.26 285.364 518.886 285.364C518.5 285.364 518.179 285.464 517.922 285.664C517.665 285.864 517.47 286.137 517.339 286.483C517.21 286.828 517.146 287.218 517.146 287.653C517.146 288.093 517.212 288.489 517.343 288.84C517.475 289.191 517.669 289.47 517.926 289.676C518.186 289.879 518.506 289.98 518.886 289.98ZM526.531 291.077C525.882 291.077 525.324 290.939 524.855 290.661C524.39 290.381 524.03 289.989 523.775 289.483C523.524 288.974 523.398 288.379 523.398 287.696C523.398 287.021 523.524 286.427 523.775 285.913C524.03 285.398 524.384 284.997 524.838 284.708C525.295 284.42 525.83 284.275 526.441 284.275C526.813 284.275 527.173 284.337 527.521 284.46C527.87 284.583 528.183 284.775 528.46 285.038C528.737 285.301 528.955 285.643 529.115 286.063C529.275 286.48 529.355 286.987 529.355 287.584V288.038H524.122V287.078H528.1C528.1 286.741 528.031 286.443 527.894 286.183C527.757 285.92 527.564 285.713 527.315 285.561C527.07 285.41 526.781 285.334 526.45 285.334C526.09 285.334 525.775 285.423 525.507 285.6C525.241 285.774 525.035 286.003 524.89 286.286C524.747 286.566 524.675 286.87 524.675 287.198V287.948C524.675 288.389 524.752 288.763 524.907 289.071C525.064 289.38 525.282 289.616 525.562 289.779C525.842 289.939 526.17 290.019 526.544 290.019C526.787 290.019 527.008 289.984 527.208 289.916C527.408 289.844 527.581 289.739 527.727 289.599C527.873 289.459 527.984 289.286 528.061 289.08L529.274 289.299C529.177 289.656 529.003 289.969 528.751 290.237C528.503 290.503 528.19 290.71 527.813 290.859C527.438 291.004 527.011 291.077 526.531 291.077ZM536.22 284.361L533.833 290.944H532.462L530.07 284.361H531.446L533.113 289.427H533.182L534.845 284.361H536.22Z" fill="white"/>
<path d="M579.191 330.25C578.957 330.25 578.755 330.168 578.587 330.002C578.418 329.833 578.334 329.63 578.334 329.393C578.334 329.159 578.418 328.959 578.587 328.793C578.755 328.625 578.957 328.54 579.191 328.54C579.425 328.54 579.627 328.625 579.795 328.793C579.964 328.959 580.048 329.159 580.048 329.393C580.048 329.55 580.008 329.695 579.928 329.826C579.851 329.955 579.748 330.058 579.62 330.135C579.491 330.212 579.348 330.25 579.191 330.25ZM584.538 330.302C583.901 330.302 583.352 330.158 582.892 329.869C582.435 329.577 582.083 329.176 581.838 328.665C581.592 328.153 581.469 327.567 581.469 326.907C581.469 326.239 581.595 325.649 581.846 325.137C582.098 324.623 582.452 324.222 582.909 323.933C583.366 323.644 583.905 323.5 584.525 323.5C585.025 323.5 585.471 323.593 585.862 323.779C586.254 323.962 586.569 324.219 586.809 324.55C587.052 324.882 587.196 325.269 587.242 325.712H585.995C585.926 325.403 585.769 325.137 585.524 324.914C585.281 324.692 584.955 324.58 584.546 324.58C584.189 324.58 583.876 324.674 583.608 324.863C583.342 325.049 583.135 325.314 582.986 325.66C582.838 326.003 582.763 326.409 582.763 326.877C582.763 327.357 582.836 327.772 582.982 328.12C583.128 328.469 583.333 328.739 583.599 328.93C583.868 329.122 584.183 329.217 584.546 329.217C584.789 329.217 585.009 329.173 585.206 329.085C585.406 328.993 585.574 328.863 585.708 328.695C585.845 328.526 585.941 328.323 585.995 328.086H587.242C587.196 328.512 587.058 328.892 586.826 329.226C586.595 329.56 586.285 329.823 585.896 330.015C585.511 330.206 585.058 330.302 584.538 330.302ZM591.386 330.302C590.768 330.302 590.23 330.16 589.77 329.878C589.31 329.595 588.953 329.199 588.698 328.69C588.444 328.182 588.317 327.587 588.317 326.907C588.317 326.224 588.444 325.627 588.698 325.116C588.953 324.604 589.31 324.207 589.77 323.924C590.23 323.642 590.768 323.5 591.386 323.5C592.003 323.5 592.541 323.642 593.001 323.924C593.461 324.207 593.819 324.604 594.073 325.116C594.327 325.627 594.454 326.224 594.454 326.907C594.454 327.587 594.327 328.182 594.073 328.69C593.819 329.199 593.461 329.595 593.001 329.878C592.541 330.16 592.003 330.302 591.386 330.302ZM591.39 329.226C591.79 329.226 592.121 329.12 592.384 328.909C592.647 328.697 592.841 328.416 592.967 328.065C593.096 327.713 593.16 327.326 593.16 326.903C593.16 326.483 593.096 326.097 592.967 325.746C592.841 325.392 592.647 325.107 592.384 324.893C592.121 324.679 591.79 324.572 591.39 324.572C590.987 324.572 590.653 324.679 590.387 324.893C590.124 325.107 589.928 325.392 589.8 325.746C589.674 326.097 589.611 326.483 589.611 326.903C589.611 327.326 589.674 327.713 589.8 328.065C589.928 328.416 590.124 328.697 590.387 328.909C590.653 329.12 590.987 329.226 591.39 329.226ZM596.729 330.25C596.495 330.25 596.293 330.168 596.125 330.002C595.956 329.833 595.872 329.63 595.872 329.393C595.872 329.159 595.956 328.959 596.125 328.793C596.293 328.625 596.495 328.54 596.729 328.54C596.963 328.54 597.165 328.625 597.333 328.793C597.502 328.959 597.586 329.159 597.586 329.393C597.586 329.55 597.546 329.695 597.466 329.826C597.389 329.955 597.286 330.058 597.158 330.135C597.029 330.212 596.886 330.25 596.729 330.25ZM599.303 330.169V323.586H600.584V330.169H599.303ZM599.95 322.57C599.727 322.57 599.536 322.496 599.376 322.347C599.218 322.196 599.14 322.016 599.14 321.807C599.14 321.596 599.218 321.416 599.376 321.267C599.536 321.116 599.727 321.04 599.95 321.04C600.173 321.04 600.363 321.116 600.52 321.267C600.68 321.416 600.76 321.596 600.76 321.807C600.76 322.016 600.68 322.196 600.52 322.347C600.363 322.496 600.173 322.57 599.95 322.57ZM603.59 326.26V330.169H602.308V323.586H603.538V324.657H603.62C603.771 324.309 604.008 324.029 604.331 323.817C604.657 323.606 605.067 323.5 605.561 323.5C606.01 323.5 606.403 323.594 606.74 323.783C607.077 323.969 607.338 324.246 607.524 324.614C607.71 324.983 607.803 325.439 607.803 325.982V330.169H606.521V326.136C606.521 325.659 606.397 325.286 606.148 325.017C605.9 324.746 605.558 324.61 605.124 324.61C604.827 324.61 604.563 324.674 604.331 324.803C604.103 324.932 603.921 325.12 603.787 325.369C603.655 325.614 603.59 325.912 603.59 326.26Z" fill="white"/>
<path d="M525.634 371.419C525.4 371.419 525.199 371.336 525.03 371.171C524.862 371.002 524.777 370.799 524.777 370.562C524.777 370.328 524.862 370.128 525.03 369.962C525.199 369.794 525.4 369.709 525.634 369.709C525.869 369.709 526.07 369.794 526.239 369.962C526.407 370.128 526.492 370.328 526.492 370.562C526.492 370.719 526.452 370.864 526.372 370.995C526.295 371.124 526.192 371.226 526.063 371.304C525.935 371.381 525.792 371.419 525.634 371.419ZM530.981 371.471C530.344 371.471 529.795 371.326 529.335 371.038C528.878 370.746 528.527 370.345 528.281 369.834C528.035 369.322 527.912 368.736 527.912 368.076C527.912 367.408 528.038 366.818 528.29 366.306C528.541 365.792 528.895 365.39 529.353 365.102C529.81 364.813 530.348 364.669 530.968 364.669C531.468 364.669 531.914 364.762 532.306 364.948C532.697 365.13 533.013 365.388 533.253 365.719C533.496 366.051 533.64 366.438 533.686 366.881H532.438C532.37 366.572 532.213 366.306 531.967 366.083C531.724 365.861 531.398 365.749 530.99 365.749C530.633 365.749 530.32 365.843 530.051 366.032C529.785 366.218 529.578 366.483 529.43 366.829C529.281 367.172 529.207 367.578 529.207 368.046C529.207 368.526 529.28 368.941 529.425 369.289C529.571 369.638 529.777 369.908 530.043 370.099C530.311 370.291 530.627 370.386 530.99 370.386C531.233 370.386 531.453 370.342 531.65 370.254C531.85 370.162 532.017 370.032 532.151 369.864C532.288 369.695 532.384 369.492 532.438 369.255H533.686C533.64 369.681 533.501 370.061 533.27 370.395C533.038 370.729 532.728 370.992 532.34 371.184C531.954 371.375 531.501 371.471 530.981 371.471ZM536.337 362.56V371.338H535.056V362.56H536.337ZM542.232 368.608V364.755H543.517V371.338H542.257V370.198H542.189C542.037 370.549 541.794 370.842 541.46 371.076C541.129 371.308 540.716 371.424 540.222 371.424C539.799 371.424 539.424 371.331 539.099 371.145C538.776 370.956 538.521 370.678 538.336 370.309C538.153 369.941 538.061 369.485 538.061 368.942V364.755H539.343V368.788C539.343 369.236 539.467 369.594 539.716 369.859C539.964 370.125 540.287 370.258 540.684 370.258C540.924 370.258 541.163 370.198 541.4 370.078C541.64 369.958 541.839 369.776 541.996 369.534C542.156 369.291 542.235 368.982 542.232 368.608ZM545.342 371.338V362.56H546.624V365.822H546.701C546.775 365.685 546.882 365.526 547.022 365.346C547.162 365.166 547.357 365.009 547.605 364.875C547.854 364.738 548.182 364.669 548.591 364.669C549.122 364.669 549.597 364.803 550.014 365.072C550.431 365.34 550.758 365.728 550.995 366.233C551.235 366.739 551.355 367.348 551.355 368.059C551.355 368.771 551.237 369.381 551 369.889C550.762 370.395 550.437 370.785 550.022 371.059C549.608 371.331 549.135 371.466 548.604 371.466C548.204 371.466 547.877 371.399 547.622 371.265C547.371 371.131 547.174 370.974 547.031 370.794C546.888 370.614 546.778 370.454 546.701 370.314H546.594V371.338H545.342ZM546.598 368.046C546.598 368.509 546.665 368.915 546.799 369.264C546.934 369.612 547.128 369.885 547.382 370.082C547.637 370.276 547.948 370.374 548.317 370.374C548.699 370.374 549.019 370.272 549.277 370.069C549.534 369.864 549.728 369.585 549.859 369.234C549.994 368.882 550.061 368.486 550.061 368.046C550.061 367.612 549.995 367.222 549.864 366.876C549.735 366.531 549.541 366.258 549.281 366.058C549.024 365.858 548.702 365.758 548.317 365.758C547.945 365.758 547.631 365.853 547.374 366.045C547.119 366.236 546.926 366.503 546.795 366.846C546.664 367.189 546.598 367.589 546.598 368.046Z" fill="white"/>
<path d="M360.775 366.054C360.541 366.054 360.339 365.971 360.171 365.805C360.002 365.636 359.918 365.434 359.918 365.196C359.918 364.962 360.002 364.762 360.171 364.596C360.339 364.428 360.541 364.344 360.775 364.344C361.009 364.344 361.211 364.428 361.379 364.596C361.548 364.762 361.632 364.962 361.632 365.196C361.632 365.354 361.592 365.498 361.512 365.629C361.435 365.758 361.332 365.861 361.204 365.938C361.075 366.015 360.932 366.054 360.775 366.054ZM366.122 366.105C365.485 366.105 364.936 365.961 364.476 365.672C364.019 365.381 363.667 364.979 363.422 364.468C363.176 363.956 363.053 363.371 363.053 362.711C363.053 362.042 363.179 361.452 363.43 360.941C363.682 360.426 364.036 360.025 364.493 359.736C364.95 359.448 365.489 359.303 366.109 359.303C366.609 359.303 367.055 359.396 367.446 359.582C367.838 359.765 368.153 360.022 368.393 360.353C368.636 360.685 368.78 361.072 368.826 361.515H367.579C367.51 361.206 367.353 360.941 367.108 360.718C366.865 360.495 366.539 360.383 366.13 360.383C365.773 360.383 365.46 360.478 365.192 360.666C364.926 360.852 364.719 361.118 364.57 361.463C364.422 361.806 364.347 362.212 364.347 362.681C364.347 363.161 364.42 363.575 364.566 363.924C364.712 364.272 364.917 364.542 365.183 364.734C365.452 364.925 365.767 365.021 366.13 365.021C366.373 365.021 366.593 364.976 366.79 364.888C366.99 364.796 367.158 364.666 367.292 364.498C367.429 364.329 367.525 364.126 367.579 363.889H368.826C368.78 364.315 368.642 364.695 368.41 365.029C368.179 365.364 367.869 365.626 367.48 365.818C367.095 366.009 366.642 366.105 366.122 366.105ZM371.478 357.195V365.972H370.197V357.195H371.478ZM377.372 363.242V359.389H378.658V365.972H377.398V364.832H377.329C377.178 365.184 376.935 365.476 376.601 365.711C376.269 365.942 375.856 366.058 375.362 366.058C374.939 366.058 374.565 365.965 374.239 365.779C373.916 365.591 373.662 365.312 373.476 364.944C373.294 364.575 373.202 364.119 373.202 363.576V359.389H374.484V363.422C374.484 363.871 374.608 364.228 374.856 364.494C375.105 364.759 375.428 364.892 375.825 364.892C376.065 364.892 376.304 364.832 376.541 364.712C376.781 364.592 376.979 364.411 377.137 364.168C377.297 363.925 377.375 363.616 377.372 363.242ZM380.483 365.972V357.195H381.764V360.456H381.841C381.916 360.319 382.023 360.16 382.163 359.98C382.303 359.8 382.497 359.643 382.746 359.509C382.994 359.372 383.323 359.303 383.731 359.303C384.263 359.303 384.737 359.438 385.154 359.706C385.572 359.975 385.899 360.362 386.136 360.868C386.376 361.373 386.496 361.982 386.496 362.693C386.496 363.405 386.377 364.015 386.14 364.524C385.903 365.029 385.577 365.419 385.163 365.694C384.749 365.965 384.276 366.101 383.744 366.101C383.344 366.101 383.017 366.034 382.763 365.899C382.511 365.765 382.314 365.608 382.171 365.428C382.029 365.248 381.919 365.088 381.841 364.948H381.734V365.972H380.483ZM381.739 362.681C381.739 363.143 381.806 363.549 381.94 363.898C382.074 364.246 382.269 364.519 382.523 364.716C382.777 364.911 383.089 365.008 383.457 365.008C383.84 365.008 384.16 364.906 384.417 364.704C384.674 364.498 384.869 364.219 385 363.868C385.134 363.516 385.202 363.121 385.202 362.681C385.202 362.246 385.136 361.856 385.004 361.511C384.876 361.165 384.682 360.892 384.422 360.692C384.164 360.492 383.843 360.392 383.457 360.392C383.086 360.392 382.771 360.488 382.514 360.679C382.26 360.871 382.067 361.138 381.936 361.481C381.804 361.823 381.739 362.223 381.739 362.681Z" fill="white"/>
<path d="M501.37 497.911C501.136 497.911 500.934 497.828 500.766 497.662C500.597 497.494 500.513 497.291 500.513 497.054C500.513 496.82 500.597 496.62 500.766 496.454C500.934 496.285 501.136 496.201 501.37 496.201C501.604 496.201 501.806 496.285 501.974 496.454C502.143 496.62 502.227 496.82 502.227 497.054C502.227 497.211 502.187 497.355 502.107 497.487C502.03 497.615 501.927 497.718 501.798 497.795C501.67 497.872 501.527 497.911 501.37 497.911ZM506.717 497.962C506.079 497.962 505.531 497.818 505.071 497.53C504.614 497.238 504.262 496.837 504.016 496.325C503.771 495.814 503.648 495.228 503.648 494.568C503.648 493.899 503.774 493.309 504.025 492.798C504.276 492.284 504.631 491.882 505.088 491.594C505.545 491.305 506.084 491.161 506.704 491.161C507.204 491.161 507.649 491.254 508.041 491.439C508.432 491.622 508.748 491.879 508.988 492.211C509.231 492.542 509.375 492.929 509.421 493.372H508.174C508.105 493.064 507.948 492.798 507.702 492.575C507.459 492.352 507.134 492.241 506.725 492.241C506.368 492.241 506.055 492.335 505.786 492.524C505.521 492.709 505.314 492.975 505.165 493.321C505.016 493.664 504.942 494.069 504.942 494.538C504.942 495.018 505.015 495.432 505.161 495.781C505.306 496.13 505.512 496.4 505.778 496.591C506.046 496.782 506.362 496.878 506.725 496.878C506.968 496.878 507.188 496.834 507.385 496.745C507.585 496.654 507.752 496.524 507.887 496.355C508.024 496.187 508.119 495.984 508.174 495.747H509.421C509.375 496.172 509.237 496.552 509.005 496.887C508.774 497.221 508.464 497.484 508.075 497.675C507.689 497.867 507.237 497.962 506.717 497.962ZM512.073 489.052V497.83H510.791V489.052H512.073ZM517.967 495.099V491.246H519.253V497.83H517.993V496.69H517.924C517.773 497.041 517.53 497.334 517.196 497.568C516.864 497.8 516.451 497.915 515.957 497.915C515.534 497.915 515.16 497.822 514.834 497.637C514.511 497.448 514.257 497.17 514.071 496.801C513.888 496.432 513.797 495.977 513.797 495.434V491.246H515.078V495.279C515.078 495.728 515.203 496.085 515.451 496.351C515.7 496.617 516.023 496.75 516.42 496.75C516.66 496.75 516.898 496.69 517.136 496.57C517.376 496.45 517.574 496.268 517.731 496.025C517.891 495.782 517.97 495.474 517.967 495.099ZM521.077 497.83V489.052H522.359V492.314H522.436C522.51 492.176 522.618 492.018 522.758 491.838C522.898 491.658 523.092 491.501 523.34 491.366C523.589 491.229 523.918 491.161 524.326 491.161C524.858 491.161 525.332 491.295 525.749 491.564C526.166 491.832 526.493 492.219 526.731 492.725C526.971 493.231 527.091 493.839 527.091 494.551C527.091 495.262 526.972 495.872 526.735 496.381C526.498 496.887 526.172 497.277 525.758 497.551C525.343 497.822 524.871 497.958 524.339 497.958C523.939 497.958 523.612 497.891 523.358 497.757C523.106 497.622 522.909 497.465 522.766 497.285C522.623 497.105 522.513 496.945 522.436 496.805H522.329V497.83H521.077ZM522.333 494.538C522.333 495.001 522.4 495.407 522.535 495.755C522.669 496.104 522.863 496.377 523.118 496.574C523.372 496.768 523.683 496.865 524.052 496.865C524.435 496.865 524.755 496.764 525.012 496.561C525.269 496.355 525.463 496.077 525.595 495.725C525.729 495.374 525.796 494.978 525.796 494.538C525.796 494.104 525.731 493.714 525.599 493.368C525.471 493.022 525.276 492.749 525.016 492.549C524.759 492.349 524.438 492.249 524.052 492.249C523.68 492.249 523.366 492.345 523.109 492.537C522.855 492.728 522.662 492.995 522.53 493.338C522.399 493.681 522.333 494.081 522.333 494.538Z" fill="white"/>
<path d="M571.27 456.606C571.036 456.606 570.835 456.523 570.666 456.358C570.497 456.189 570.413 455.986 570.413 455.749C570.413 455.515 570.497 455.315 570.666 455.149C570.835 454.981 571.036 454.896 571.27 454.896C571.505 454.896 571.706 454.981 571.875 455.149C572.043 455.315 572.127 455.515 572.127 455.749C572.127 455.906 572.087 456.051 572.007 456.182C571.93 456.311 571.827 456.413 571.699 456.491C571.57 456.568 571.427 456.606 571.27 456.606ZM576.617 456.658C575.98 456.658 575.431 456.513 574.971 456.225C574.514 455.933 574.163 455.532 573.917 455.021C573.671 454.509 573.548 453.923 573.548 453.263C573.548 452.595 573.674 452.005 573.925 451.493C574.177 450.979 574.531 450.578 574.988 450.289C575.445 450 575.984 449.856 576.604 449.856C577.104 449.856 577.55 449.949 577.941 450.135C578.333 450.317 578.648 450.575 578.888 450.906C579.131 451.238 579.276 451.625 579.321 452.068H578.074C578.006 451.759 577.848 451.493 577.603 451.27C577.36 451.048 577.034 450.936 576.625 450.936C576.268 450.936 575.955 451.03 575.687 451.219C575.421 451.405 575.214 451.67 575.065 452.016C574.917 452.359 574.843 452.765 574.843 453.233C574.843 453.713 574.915 454.128 575.061 454.476C575.207 454.825 575.413 455.095 575.678 455.286C575.947 455.478 576.263 455.573 576.625 455.573C576.868 455.573 577.088 455.529 577.286 455.441C577.486 455.349 577.653 455.219 577.787 455.051C577.924 454.882 578.02 454.679 578.074 454.442H579.321C579.276 454.868 579.137 455.248 578.906 455.582C578.674 455.916 578.364 456.179 577.976 456.371C577.59 456.562 577.137 456.658 576.617 456.658ZM581.973 447.747V456.525H580.692V447.747H581.973ZM587.867 453.795V449.942H589.153V456.525H587.893V455.385H587.825C587.673 455.736 587.43 456.029 587.096 456.263C586.764 456.495 586.352 456.611 585.857 456.611C585.434 456.611 585.06 456.518 584.734 456.332C584.412 456.143 584.157 455.865 583.972 455.496C583.789 455.128 583.697 454.672 583.697 454.129V449.942H584.979V453.975C584.979 454.423 585.103 454.781 585.352 455.046C585.6 455.312 585.923 455.445 586.32 455.445C586.56 455.445 586.799 455.385 587.036 455.265C587.276 455.145 587.475 454.963 587.632 454.721C587.792 454.478 587.87 454.169 587.867 453.795ZM590.978 456.525V447.747H592.259V451.009H592.337C592.411 450.872 592.518 450.713 592.658 450.533C592.798 450.353 592.992 450.196 593.241 450.062C593.489 449.925 593.818 449.856 594.227 449.856C594.758 449.856 595.232 449.99 595.65 450.259C596.067 450.527 596.394 450.915 596.631 451.42C596.871 451.926 596.991 452.535 596.991 453.246C596.991 453.958 596.872 454.568 596.635 455.076C596.398 455.582 596.072 455.972 595.658 456.246C595.244 456.518 594.771 456.653 594.239 456.653C593.839 456.653 593.512 456.586 593.258 456.452C593.007 456.318 592.809 456.161 592.667 455.981C592.524 455.801 592.414 455.641 592.337 455.501H592.229V456.525H590.978ZM592.234 453.233C592.234 453.696 592.301 454.102 592.435 454.451C592.569 454.799 592.764 455.072 593.018 455.269C593.272 455.463 593.584 455.561 593.952 455.561C594.335 455.561 594.655 455.459 594.912 455.256C595.169 455.051 595.364 454.772 595.495 454.421C595.63 454.069 595.697 453.673 595.697 453.233C595.697 452.799 595.631 452.409 595.5 452.063C595.371 451.718 595.177 451.445 594.917 451.245C594.659 451.045 594.338 450.945 593.952 450.945C593.581 450.945 593.267 451.04 593.009 451.232C592.755 451.423 592.562 451.69 592.431 452.033C592.299 452.376 592.234 452.776 592.234 453.233Z" fill="white"/>
<path d="M422.732 482.025C422.498 482.025 422.296 481.942 422.128 481.776C421.959 481.608 421.875 481.405 421.875 481.168C421.875 480.933 421.959 480.733 422.128 480.568C422.296 480.399 422.498 480.315 422.732 480.315C422.966 480.315 423.168 480.399 423.336 480.568C423.505 480.733 423.589 480.933 423.589 481.168C423.589 481.325 423.549 481.469 423.469 481.6C423.392 481.729 423.289 481.832 423.161 481.909C423.032 481.986 422.889 482.025 422.732 482.025ZM428.079 482.076C427.442 482.076 426.893 481.932 426.433 481.643C425.976 481.352 425.624 480.95 425.379 480.439C425.133 479.928 425.01 479.342 425.01 478.682C425.01 478.013 425.136 477.423 425.387 476.912C425.639 476.397 425.993 475.996 426.45 475.707C426.907 475.419 427.446 475.274 428.066 475.274C428.566 475.274 429.012 475.367 429.403 475.553C429.795 475.736 430.11 475.993 430.35 476.325C430.593 476.656 430.738 477.043 430.783 477.486H429.536C429.467 477.177 429.31 476.912 429.065 476.689C428.822 476.466 428.496 476.355 428.087 476.355C427.73 476.355 427.417 476.449 427.149 476.637C426.883 476.823 426.676 477.089 426.527 477.435C426.379 477.777 426.304 478.183 426.304 478.652C426.304 479.132 426.377 479.546 426.523 479.895C426.669 480.243 426.874 480.513 427.14 480.705C427.409 480.896 427.725 480.992 428.087 480.992C428.33 480.992 428.55 480.948 428.747 480.859C428.947 480.768 429.115 480.638 429.249 480.469C429.386 480.3 429.482 480.098 429.536 479.86H430.783C430.738 480.286 430.599 480.666 430.367 481C430.136 481.335 429.826 481.598 429.437 481.789C429.052 481.981 428.599 482.076 428.079 482.076ZM433.435 473.166V481.943H432.154V473.166H433.435ZM439.329 479.213V475.36H440.615V481.943H439.355V480.803H439.286C439.135 481.155 438.892 481.448 438.558 481.682C438.226 481.913 437.814 482.029 437.319 482.029C436.896 482.029 436.522 481.936 436.196 481.75C435.873 481.562 435.619 481.283 435.433 480.915C435.251 480.546 435.159 480.09 435.159 479.548V475.36H436.441V479.393C436.441 479.842 436.565 480.199 436.813 480.465C437.062 480.73 437.385 480.863 437.782 480.863C438.022 480.863 438.261 480.803 438.498 480.683C438.738 480.563 438.936 480.382 439.094 480.139C439.254 479.896 439.332 479.588 439.329 479.213ZM442.44 481.943V473.166H443.721V476.427H443.798C443.873 476.29 443.98 476.132 444.12 475.952C444.26 475.772 444.454 475.615 444.703 475.48C444.951 475.343 445.28 475.274 445.689 475.274C446.22 475.274 446.694 475.409 447.111 475.677C447.529 475.946 447.856 476.333 448.093 476.839C448.333 477.345 448.453 477.953 448.453 478.665C448.453 479.376 448.334 479.986 448.097 480.495C447.86 481 447.534 481.39 447.12 481.665C446.706 481.936 446.233 482.072 445.701 482.072C445.301 482.072 444.974 482.005 444.72 481.87C444.468 481.736 444.271 481.579 444.128 481.399C443.986 481.219 443.876 481.059 443.798 480.919H443.691V481.943H442.44ZM443.696 478.652C443.696 479.115 443.763 479.52 443.897 479.869C444.031 480.218 444.226 480.49 444.48 480.688C444.734 480.882 445.046 480.979 445.414 480.979C445.797 480.979 446.117 480.878 446.374 480.675C446.631 480.469 446.826 480.19 446.957 479.839C447.091 479.488 447.159 479.092 447.159 478.652C447.159 478.217 447.093 477.827 446.961 477.482C446.833 477.136 446.639 476.863 446.379 476.663C446.121 476.463 445.8 476.363 445.414 476.363C445.043 476.363 444.728 476.459 444.471 476.65C444.217 476.842 444.024 477.109 443.893 477.452C443.761 477.795 443.696 478.195 443.696 478.652Z" fill="white"/>
<path d="M615.753 377.968C615.518 377.968 615.317 377.885 615.148 377.72C614.98 377.551 614.895 377.348 614.895 377.111C614.895 376.877 614.98 376.677 615.148 376.511C615.317 376.342 615.518 376.258 615.753 376.258C615.987 376.258 616.188 376.342 616.357 376.511C616.526 376.677 616.61 376.877 616.61 377.111C616.61 377.268 616.57 377.412 616.49 377.544C616.413 377.672 616.31 377.775 616.181 377.852C616.053 377.93 615.91 377.968 615.753 377.968ZM621.099 378.02C620.462 378.02 619.914 377.875 619.454 377.587C618.996 377.295 618.645 376.894 618.399 376.382C618.153 375.871 618.031 375.285 618.031 374.625C618.031 373.957 618.156 373.367 618.408 372.855C618.659 372.341 619.014 371.939 619.471 371.651C619.928 371.362 620.466 371.218 621.086 371.218C621.586 371.218 622.032 371.311 622.424 371.496C622.815 371.679 623.131 371.936 623.371 372.268C623.614 372.599 623.758 372.987 623.804 373.429H622.557C622.488 373.121 622.331 372.855 622.085 372.632C621.842 372.409 621.516 372.298 621.108 372.298C620.751 372.298 620.438 372.392 620.169 372.581C619.904 372.766 619.696 373.032 619.548 373.378C619.399 373.721 619.325 374.127 619.325 374.595C619.325 375.075 619.398 375.489 619.544 375.838C619.689 376.187 619.895 376.457 620.161 376.648C620.429 376.84 620.745 376.935 621.108 376.935C621.351 376.935 621.571 376.891 621.768 376.802C621.968 376.711 622.135 376.581 622.269 376.412C622.407 376.244 622.502 376.041 622.557 375.804H623.804C623.758 376.23 623.619 376.61 623.388 376.944C623.157 377.278 622.847 377.541 622.458 377.732C622.072 377.924 621.619 378.02 621.099 378.02ZM626.456 369.109V377.887H625.174V369.109H626.456ZM632.35 375.157V371.304H633.636V377.887H632.376V376.747H632.307C632.156 377.098 631.913 377.391 631.578 377.625C631.247 377.857 630.834 377.972 630.34 377.972C629.917 377.972 629.543 377.88 629.217 377.694C628.894 377.505 628.64 377.227 628.454 376.858C628.271 376.49 628.18 376.034 628.18 375.491V371.304H629.461V375.337C629.461 375.785 629.585 376.142 629.834 376.408C630.083 376.674 630.405 376.807 630.803 376.807C631.043 376.807 631.281 376.747 631.518 376.627C631.758 376.507 631.957 376.325 632.114 376.082C632.274 375.839 632.353 375.531 632.35 375.157ZM635.46 377.887V369.109H636.742V372.371H636.819C636.893 372.234 637 372.075 637.14 371.895C637.28 371.715 637.475 371.558 637.723 371.424C637.972 371.286 638.3 371.218 638.709 371.218C639.24 371.218 639.715 371.352 640.132 371.621C640.549 371.889 640.876 372.276 641.113 372.782C641.353 373.288 641.473 373.897 641.473 374.608C641.473 375.319 641.355 375.929 641.118 376.438C640.881 376.944 640.555 377.334 640.141 377.608C639.726 377.88 639.253 378.015 638.722 378.015C638.322 378.015 637.995 377.948 637.74 377.814C637.489 377.68 637.292 377.522 637.149 377.342C637.006 377.162 636.896 377.002 636.819 376.862H636.712V377.887H635.46ZM636.716 374.595C636.716 375.058 636.783 375.464 636.918 375.812C637.052 376.161 637.246 376.434 637.5 376.631C637.755 376.825 638.066 376.922 638.435 376.922C638.818 376.922 639.138 376.821 639.395 376.618C639.652 376.412 639.846 376.134 639.978 375.782C640.112 375.431 640.179 375.035 640.179 374.595C640.179 374.161 640.113 373.771 639.982 373.425C639.853 373.079 639.659 372.806 639.399 372.606C639.142 372.406 638.82 372.306 638.435 372.306C638.063 372.306 637.749 372.402 637.492 372.594C637.238 372.785 637.045 373.052 636.913 373.395C636.782 373.738 636.716 374.138 636.716 374.595Z" fill="white"/>
<path d="M583.717 260.853C583.482 260.853 583.281 260.77 583.112 260.604C582.944 260.436 582.859 260.233 582.859 259.996C582.859 259.761 582.944 259.561 583.112 259.396C583.281 259.227 583.482 259.143 583.717 259.143C583.951 259.143 584.152 259.227 584.321 259.396C584.489 259.561 584.574 259.761 584.574 259.996C584.574 260.153 584.534 260.297 584.454 260.429C584.377 260.557 584.274 260.66 584.145 260.737C584.017 260.814 583.874 260.853 583.717 260.853ZM589.063 260.904C588.426 260.904 587.877 260.76 587.417 260.471C586.96 260.18 586.609 259.779 586.363 259.267C586.117 258.756 585.994 258.17 585.994 257.51C585.994 256.841 586.12 256.251 586.372 255.74C586.623 255.226 586.977 254.824 587.435 254.535C587.892 254.247 588.43 254.103 589.05 254.103C589.55 254.103 589.996 254.195 590.388 254.381C590.779 254.564 591.095 254.821 591.335 255.153C591.578 255.484 591.722 255.871 591.768 256.314H590.52C590.452 256.006 590.295 255.74 590.049 255.517C589.806 255.294 589.48 255.183 589.072 255.183C588.715 255.183 588.402 255.277 588.133 255.466C587.867 255.651 587.66 255.917 587.512 256.263C587.363 256.606 587.289 257.011 587.289 257.48C587.289 257.96 587.362 258.374 587.507 258.723C587.653 259.071 587.859 259.341 588.125 259.533C588.393 259.724 588.709 259.82 589.072 259.82C589.315 259.82 589.535 259.776 589.732 259.687C589.932 259.596 590.099 259.466 590.233 259.297C590.37 259.129 590.466 258.926 590.52 258.689H591.768C591.722 259.114 591.583 259.494 591.352 259.829C591.12 260.163 590.81 260.426 590.422 260.617C590.036 260.809 589.583 260.904 589.063 260.904ZM594.419 251.994V260.771H593.138V251.994H594.419ZM600.314 258.041V254.188H601.599V260.771H600.339V259.631H600.271C600.119 259.983 599.877 260.276 599.542 260.51C599.211 260.741 598.798 260.857 598.304 260.857C597.881 260.857 597.506 260.764 597.181 260.579C596.858 260.39 596.604 260.111 596.418 259.743C596.235 259.374 596.143 258.919 596.143 258.376V254.188H597.425V258.221C597.425 258.67 597.549 259.027 597.798 259.293C598.046 259.559 598.369 259.691 598.766 259.691C599.006 259.691 599.245 259.631 599.482 259.511C599.722 259.391 599.921 259.21 600.078 258.967C600.238 258.724 600.317 258.416 600.314 258.041ZM603.424 260.771V251.994H604.706V255.256H604.783C604.857 255.118 604.964 254.96 605.104 254.78C605.244 254.6 605.439 254.443 605.687 254.308C605.936 254.171 606.264 254.103 606.673 254.103C607.204 254.103 607.679 254.237 608.096 254.505C608.513 254.774 608.84 255.161 609.077 255.667C609.317 256.173 609.437 256.781 609.437 257.493C609.437 258.204 609.319 258.814 609.082 259.323C608.844 259.829 608.519 260.219 608.104 260.493C607.69 260.764 607.217 260.9 606.686 260.9C606.286 260.9 605.959 260.833 605.704 260.699C605.453 260.564 605.256 260.407 605.113 260.227C604.97 260.047 604.86 259.887 604.783 259.747H604.676V260.771H603.424ZM604.68 257.48C604.68 257.943 604.747 258.349 604.881 258.697C605.016 259.046 605.21 259.319 605.464 259.516C605.719 259.71 606.03 259.807 606.399 259.807C606.781 259.807 607.101 259.706 607.359 259.503C607.616 259.297 607.81 259.019 607.942 258.667C608.076 258.316 608.143 257.92 608.143 257.48C608.143 257.046 608.077 256.656 607.946 256.31C607.817 255.964 607.623 255.691 607.363 255.491C607.106 255.291 606.784 255.191 606.399 255.191C606.027 255.191 605.713 255.287 605.456 255.478C605.201 255.67 605.009 255.937 604.877 256.28C604.746 256.623 604.68 257.023 604.68 257.48Z" fill="white"/>
<defs>
<linearGradient id="paint0_linear_1138_4103" x1="384.018" y1="85.1963" x2="384.018" y2="208.345" gradientUnits="userSpaceOnUse">
<stop stop-color="#3676AE" stop-opacity="0.28"/>
<stop offset="1" stop-color="#0C62AF" stop-opacity="0"/>
</linearGradient>
<linearGradient id="paint1_linear_1138_4103" x1="456.048" y1="49.5684" x2="456.048" y2="120.892" gradientUnits="userSpaceOnUse">
<stop stop-color="#3676AE" stop-opacity="0.28"/>
<stop offset="1" stop-color="#0C62AF" stop-opacity="0"/>
</linearGradient>
<linearGradient id="paint2_linear_1138_4103" x1="262.418" y1="49.5684" x2="262.418" y2="120.892" gradientUnits="userSpaceOnUse">
<stop stop-color="#3676AE" stop-opacity="0.28"/>
<stop offset="1" stop-color="#0C62AF" stop-opacity="0"/>
</linearGradient>
</defs>
</svg>
